<svg width="1440" height="1024" viewBox="0 0 1440 1024" fill="none" xmlns="http://www.w3.org/2000/svg">
<mask id="mask0_383_9151" style="mask-type:alpha" maskUnits="userSpaceOnUse" x="0" y="0" width="635" height="1024">
<rect width="635" height="1024" fill="#D9D9D9"/>
</mask>
<g mask="url(#mask0_383_9151)">
<path fill-rule="evenodd" clip-rule="evenodd" d="M-228 -146.423L-207.205 -89.6911C-186.411 -32.9588 -144.821 80.5058 -131.647 195.145C-118.472 309.783 -133.713 425.597 -82.6519 538.67C-31.591 651.743 85.7711 762.076 117.889 875.932C150.006 989.788 96.8797 1107.17 70.3163 1165.86L43.753 1224.55L271.071 1215.15L269.22 1157.64C267.369 1100.12 263.666 985.091 259.963 870.061C256.26 755.03 252.557 640 248.854 524.97C245.151 409.94 241.448 294.909 237.746 179.879C234.043 64.8488 230.34 -50.1814 228.488 -107.697L226.637 -165.212L-228 -146.423Z" fill="#E7F3EC"/>
<path fill-rule="evenodd" clip-rule="evenodd" d="M681.274 -184L664.183 -125.702C647.091 -67.4036 612.907 49.1924 607.139 164.614C601.37 280.036 624.016 394.283 580.361 511.271C536.706 628.258 426.749 747.985 402.037 864.19C377.325 980.394 437.858 1093.08 468.124 1149.42L498.391 1205.76L271.071 1215.15L269.22 1157.64C267.369 1100.12 263.666 985.091 259.963 870.061C256.26 755.03 252.557 640 248.854 524.97C245.151 409.94 241.448 294.909 237.746 179.879C234.043 64.8488 230.34 -50.1814 228.488 -107.697L226.637 -165.212L681.274 -184Z" fill="#E7F3EC"/>
<path fill-rule="evenodd" clip-rule="evenodd" d="M-365 -127.423L-344.205 -70.6911C-323.411 -13.9588 -281.821 99.5058 -268.647 214.145C-255.472 328.783 -270.713 444.597 -219.652 557.67C-168.591 670.743 -51.2289 781.076 -19.1112 894.932C13.0065 1008.79 -40.1203 1126.17 -66.6836 1184.86L-93.247 1243.55L134.071 1234.15L132.22 1176.64C130.369 1119.12 126.666 1004.09 122.963 889.061C119.26 774.03 115.557 659 111.854 543.97C108.151 428.94 104.448 313.909 100.746 198.879C97.0427 83.8488 93.3398 -31.1814 91.4884 -88.6966L89.637 -146.212L-365 -127.423Z" fill="#CEE6D9"/>
<path fill-rule="evenodd" clip-rule="evenodd" d="M544.274 -165L527.183 -106.702C510.091 -48.4036 475.907 68.1924 470.139 183.614C464.37 299.036 487.016 413.283 443.361 530.271C399.706 647.258 289.749 766.985 265.037 883.19C240.325 999.394 300.858 1112.08 331.124 1168.42L361.391 1224.76L134.071 1234.15L132.22 1176.64C130.369 1119.12 126.666 1004.09 122.963 889.061C119.26 774.03 115.557 659 111.854 543.97C108.151 428.94 104.448 313.909 100.746 198.879C97.0427 83.8488 93.3398 -31.1814 91.4884 -88.6966L89.637 -146.212L544.274 -165Z" fill="#CEE6D9"/>
<path fill-rule="evenodd" clip-rule="evenodd" d="M-487 -127.423L-466.205 -70.691C-445.411 -13.9587 -403.821 99.5058 -390.647 214.145C-377.472 328.784 -392.713 444.597 -341.652 557.67C-290.591 670.743 -173.229 781.076 -141.111 894.932C-108.994 1008.79 -162.12 1126.17 -188.684 1184.86L-215.247 1243.55L12.0715 1234.15L10.22 1176.64C8.36859 1119.12 4.66571 1004.09 0.96283 889.061C-2.74005 774.03 -6.44291 659 -10.1458 543.97C-13.8487 428.94 -17.5515 313.909 -21.2544 198.879C-24.9573 83.8489 -28.6602 -31.1814 -30.5116 -88.6965L-32.363 -146.212L-487 -127.423Z" fill="#BEDCCF"/>
<path fill-rule="evenodd" clip-rule="evenodd" d="M422.274 -164.999L405.183 -106.701C388.091 -48.4035 353.907 68.1925 348.139 183.614C342.37 299.036 365.016 413.283 321.361 530.271C277.706 647.258 167.749 766.985 143.037 883.19C118.325 999.394 178.858 1112.08 209.124 1168.42L239.391 1224.76L12.0715 1234.15L10.22 1176.64C8.36859 1119.12 4.66571 1004.09 0.96283 889.061C-2.74005 774.03 -6.44291 659 -10.1458 543.97C-13.8487 428.94 -17.5515 313.909 -21.2544 198.879C-24.9573 83.8489 -28.6602 -31.1814 -30.5116 -88.6965L-32.363 -146.212L422.274 -164.999Z" fill="#BEDCCF"/>
</g>
<mask id="mask1_383_9151" style="mask-type:alpha" maskUnits="userSpaceOnUse" x="976" y="0" width="464" height="1024">
<rect x="976" width="464" height="1024" fill="#D9D9D9"/>
</mask>
<g mask="url(#mask1_383_9151)">
<g filter="url(#filter0_d_383_9151)">
<path fill-rule="evenodd" clip-rule="evenodd" d="M2453.02 584.345L2399.47 548.468C2345.91 512.591 2238.81 440.836 2173.31 347.29C2107.82 253.744 2083.95 138.407 1962.97 73.9162C1841.99 9.42532 1623.9 -4.21917 1530.66 -83.2375C1437.43 -162.256 1469.04 -306.648 1484.85 -378.844L1500.65 -451.04L1167.72 -276.71L1193.53 -226.305C1219.34 -175.9 1270.96 -75.0907 1322.58 25.7189C1374.2 126.529 1425.82 227.338 1477.44 328.148C1529.06 428.958 1580.68 529.767 1632.3 630.577C1683.92 731.387 1735.54 832.196 1761.35 882.601L1787.16 933.006L2453.02 584.345Z" fill="#F6EFE3"/>
<path fill-rule="evenodd" clip-rule="evenodd" d="M1121.29 1281.66L1123.23 1216.73C1125.16 1151.8 1129.03 1021.93 1091.29 913.861C1053.54 805.788 974.174 719.506 991.915 582.377C1009.66 445.249 1124.5 257.274 1114.5 134.673C1104.5 12.0718 969.643 -45.1552 902.217 -73.7688L834.79 -102.382L1167.72 -276.713L1193.53 -226.308C1219.34 -175.903 1270.96 -75.0933 1322.58 25.7163C1374.2 126.526 1425.82 227.336 1477.44 328.145C1529.06 428.955 1580.68 529.765 1632.3 630.574C1683.92 731.384 1735.54 832.194 1761.35 882.599L1787.16 933.003L1121.29 1281.66Z" fill="#F6EFE3"/>
</g>
<g filter="url(#filter1_d_383_9151)">
<path fill-rule="evenodd" clip-rule="evenodd" d="M2521.02 584.345L2467.47 548.468C2413.92 512.591 2306.81 440.836 2241.32 347.29C2175.82 253.744 2151.95 138.407 2030.97 73.9162C1909.99 9.42532 1691.9 -4.21917 1598.66 -83.2375C1505.43 -162.256 1537.04 -306.648 1552.85 -378.844L1568.66 -451.04L1235.72 -276.71L1261.53 -226.305C1287.34 -175.9 1338.96 -75.0907 1390.58 25.7189C1442.2 126.529 1493.82 227.338 1545.44 328.148C1597.06 428.958 1648.68 529.767 1700.3 630.577C1751.92 731.387 1803.54 832.196 1829.35 882.601L1855.16 933.006L2521.02 584.345Z" fill="#EDE4D3"/>
<path fill-rule="evenodd" clip-rule="evenodd" d="M1189.3 1281.66L1191.23 1216.73C1193.17 1151.8 1197.03 1021.93 1159.29 913.861C1121.54 805.788 1042.18 719.506 1059.92 582.377C1077.66 445.249 1192.5 257.274 1182.5 134.673C1172.5 12.0718 1037.65 -45.1552 970.219 -73.7688L902.792 -102.382L1235.72 -276.713L1261.53 -226.308C1287.34 -175.903 1338.96 -75.0933 1390.58 25.7163C1442.2 126.526 1493.82 227.336 1545.44 328.145C1597.06 428.955 1648.68 529.765 1700.3 630.574C1751.92 731.384 1803.54 832.194 1829.35 882.599L1855.16 933.003L1189.3 1281.66Z" fill="#EDE4D3"/>
<path fill-rule="evenodd" clip-rule="evenodd" d="M1254.44 1272.38L1256.37 1207.44C1258.3 1142.51 1262.17 1012.65 1224.43 904.574C1186.68 796.5 1107.31 710.218 1125.06 573.09C1142.8 435.961 1257.64 247.986 1247.64 125.385C1237.64 2.78425 1102.78 -54.4428 1035.36 -83.0564L967.931 -111.67L1300.86 -286L1326.67 -235.595C1352.48 -185.191 1404.1 -84.3809 1455.72 16.4287C1507.34 117.238 1558.96 218.048 1610.58 318.858C1662.2 419.667 1713.82 520.477 1765.44 621.287C1817.06 722.096 1868.68 822.906 1894.49 873.311L1920.3 923.716L1254.44 1272.38Z" fill="#EDE4D3"/>
</g>
<g filter="url(#filter2_d_383_9151)">
<path fill-rule="evenodd" clip-rule="evenodd" d="M2561.03 584.345L2507.47 548.468C2453.92 512.591 2346.81 440.836 2281.32 347.29C2215.82 253.744 2191.95 138.407 2070.97 73.9162C1949.99 9.42532 1731.9 -4.21917 1638.67 -83.2375C1545.43 -162.256 1577.04 -306.648 1592.85 -378.844L1608.66 -451.04L1275.72 -276.71L1301.53 -226.305C1327.34 -175.9 1378.96 -75.0907 1430.58 25.7189C1482.2 126.529 1533.82 227.338 1585.44 328.148C1637.06 428.958 1688.68 529.767 1740.3 630.577C1791.92 731.387 1843.54 832.196 1869.35 882.601L1895.16 933.006L2561.03 584.345Z" fill="#E6DBC6"/>
<path fill-rule="evenodd" clip-rule="evenodd" d="M1229.3 1281.66L1231.23 1216.73C1233.17 1151.8 1237.03 1021.93 1199.29 913.861C1161.54 805.788 1082.18 719.506 1099.92 582.377C1117.66 445.249 1232.5 257.274 1222.5 134.673C1212.5 12.0718 1077.65 -45.1552 1010.22 -73.7688L942.792 -102.382L1275.72 -276.713L1301.53 -226.308C1327.34 -175.903 1378.96 -75.0933 1430.58 25.7163C1482.2 126.526 1533.82 227.336 1585.44 328.145C1637.06 428.955 1688.68 529.765 1740.3 630.574C1791.92 731.384 1843.54 832.194 1869.35 882.599L1895.16 933.003L1229.3 1281.66Z" fill="#E6DBC6"/>
<path fill-rule="evenodd" clip-rule="evenodd" d="M1294.44 1272.38L1296.37 1207.44C1298.31 1142.51 1302.18 1012.65 1264.43 904.574C1226.68 796.5 1147.32 710.218 1165.06 573.09C1182.8 435.961 1297.64 247.986 1287.64 125.385C1277.64 2.78425 1142.79 -54.4428 1075.36 -83.0564L1007.93 -111.67L1340.87 -286L1366.68 -235.595C1392.48 -185.191 1444.1 -84.3809 1495.72 16.4287C1547.34 117.238 1598.96 218.048 1650.58 318.858C1702.2 419.667 1753.82 520.477 1805.44 621.287C1857.06 722.096 1908.68 822.906 1934.49 873.311L1960.3 923.716L1294.44 1272.38Z" fill="#E6DBC6"/>
</g>
</g>
<defs>
<filter id="filter0_d_383_9151" x="830.791" y="-451.041" width="1626.23" height="1740.7" filterUnits="userSpaceOnUse" color-interpolation-filters="sRGB">
<feFlood flood-opacity="0" result="BackgroundImageFix"/>
<feColorMatrix in="SourceAlpha" type="matrix" values="0 0 0 0 0 0 0 0 0 0 0 0 0 0 0 0 0 0 127 0" result="hardAlpha"/>
<feOffset dy="4"/>
<feGaussianBlur stdDeviation="2"/>
<feComposite in2="hardAlpha" operator="out"/>
<feColorMatrix type="matrix" values="0 0 0 0 0 0 0 0 0 0 0 0 0 0 0 0 0 0 0.5 0"/>
<feBlend mode="normal" in2="BackgroundImageFix" result="effect1_dropShadow_383_9151"/>
<feBlend mode="normal" in="SourceGraphic" in2="effect1_dropShadow_383_9151" result="shape"/>
</filter>
<filter id="filter1_d_383_9151" x="898.793" y="-451.041" width="1626.23" height="1740.7" filterUnits="userSpaceOnUse" color-interpolation-filters="sRGB">
<feFlood flood-opacity="0" result="BackgroundImageFix"/>
<feColorMatrix in="SourceAlpha" type="matrix" values="0 0 0 0 0 0 0 0 0 0 0 0 0 0 0 0 0 0 127 0" result="hardAlpha"/>
<feOffset dy="4"/>
<feGaussianBlur stdDeviation="2"/>
<feComposite in2="hardAlpha" operator="out"/>
<feColorMatrix type="matrix" values="0 0 0 0 0 0 0 0 0 0 0 0 0 0 0 0 0 0 0.5 0"/>
<feBlend mode="normal" in2="BackgroundImageFix" result="effect1_dropShadow_383_9151"/>
<feBlend mode="normal" in="SourceGraphic" in2="effect1_dropShadow_383_9151" result="shape"/>
</filter>
<filter id="filter2_d_383_9151" x="938.793" y="-451.041" width="1626.23" height="1740.7" filterUnits="userSpaceOnUse" color-interpolation-filters="sRGB">
<feFlood flood-opacity="0" result="BackgroundImageFix"/>
<feColorMatrix in="SourceAlpha" type="matrix" values="0 0 0 0 0 0 0 0 0 0 0 0 0 0 0 0 0 0 127 0" result="hardAlpha"/>
<feOffset dy="4"/>
<feGaussianBlur stdDeviation="2"/>
<feComposite in2="hardAlpha" operator="out"/>
<feColorMatrix type="matrix" values="0 0 0 0 0 0 0 0 0 0 0 0 0 0 0 0 0 0 0.5 0"/>
<feBlend mode="normal" in2="BackgroundImageFix" result="effect1_dropShadow_383_9151"/>
<feBlend mode="normal" in="SourceGraphic" in2="effect1_dropShadow_383_9151" result="shape"/>
</filter>
</defs>
</svg>
