<svg width="464" height="1024" viewBox="0 0 464 1024" fill="none" xmlns="http://www.w3.org/2000/svg">
<mask id="mask0_382_9143" style="mask-type:alpha" maskUnits="userSpaceOnUse" x="0" y="0" width="464" height="1024">
<rect width="464" height="1024" fill="#D9D9D9"/>
</mask>
<g mask="url(#mask0_382_9143)">
<g filter="url(#filter0_d_382_9143)">
<path fill-rule="evenodd" clip-rule="evenodd" d="M1477.02 584.345L1423.47 548.468C1369.91 512.591 1262.81 440.836 1197.31 347.29C1131.82 253.744 1107.95 138.407 986.967 73.9162C865.986 9.42532 647.9 -4.21917 554.664 -83.2375C461.428 -162.256 493.041 -306.648 508.848 -378.844L524.654 -451.04L191.722 -276.71L217.532 -226.305C243.342 -175.9 294.962 -75.0907 346.581 25.7189C398.201 126.529 449.821 227.338 501.44 328.148C553.06 428.958 604.68 529.767 656.3 630.577C707.919 731.387 759.539 832.196 785.349 882.601L811.159 933.006L1477.02 584.345Z" fill="#F6EFE3"/>
<path fill-rule="evenodd" clip-rule="evenodd" d="M145.295 1281.66L147.229 1216.73C149.164 1151.8 153.033 1021.93 115.285 913.861C77.5377 805.788 -1.82635 719.506 15.9148 582.377C33.656 445.249 148.502 257.274 138.499 134.673C128.496 12.0718 -6.35686 -45.1552 -73.7833 -73.7688L-141.21 -102.382L191.723 -276.713L217.532 -226.308C243.342 -175.903 294.962 -75.0933 346.582 25.7163C398.202 126.526 449.821 227.336 501.441 328.145C553.061 428.955 604.681 529.765 656.3 630.574C707.92 731.384 759.54 832.194 785.35 882.599L811.159 933.003L145.295 1281.66Z" fill="#F6EFE3"/>
</g>
<g filter="url(#filter1_d_382_9143)">
<path fill-rule="evenodd" clip-rule="evenodd" d="M1545.02 584.345L1491.47 548.468C1437.92 512.591 1330.81 440.836 1265.32 347.29C1199.82 253.744 1175.95 138.407 1054.97 73.9162C933.987 9.42532 715.901 -4.21917 622.665 -83.2375C529.429 -162.256 561.042 -306.648 576.849 -378.844L592.655 -451.04L259.723 -276.71L285.533 -226.305C311.343 -175.9 362.962 -75.0907 414.582 25.7189C466.202 126.529 517.822 227.338 569.441 328.148C621.061 428.958 672.681 529.767 724.301 630.577C775.92 731.387 827.54 832.196 853.35 882.601L879.16 933.006L1545.02 584.345Z" fill="#EDE4D3"/>
<path fill-rule="evenodd" clip-rule="evenodd" d="M213.297 1281.66L215.231 1216.73C217.166 1151.8 221.035 1021.93 183.287 913.861C145.54 805.788 66.1756 719.506 83.9168 582.377C101.658 445.249 216.504 257.274 206.501 134.673C196.498 12.0718 61.6451 -45.1552 -5.78131 -73.7688L-73.2077 -102.382L259.725 -276.713L285.534 -226.308C311.344 -175.903 362.964 -75.0933 414.584 25.7163C466.204 126.526 517.823 227.336 569.443 328.145C621.063 428.955 672.682 529.765 724.302 630.574C775.922 731.384 827.542 832.194 853.352 882.599L879.161 933.003L213.297 1281.66Z" fill="#EDE4D3"/>
<path fill-rule="evenodd" clip-rule="evenodd" d="M278.436 1272.38L280.37 1207.44C282.305 1142.51 286.173 1012.65 248.426 904.574C210.678 796.5 131.314 710.218 149.055 573.09C166.797 435.961 281.643 247.986 271.64 125.385C261.637 2.78425 126.784 -54.4428 59.3574 -83.0564L-8.06904 -111.67L324.863 -286L350.673 -235.595C376.483 -185.191 428.103 -84.3809 479.722 16.4287C531.342 117.238 582.962 218.048 634.582 318.858C686.201 419.667 737.821 520.477 789.441 621.287C841.061 722.096 892.68 822.906 918.49 873.311L944.3 923.716L278.436 1272.38Z" fill="#EDE4D3"/>
</g>
<g filter="url(#filter2_d_382_9143)">
<path fill-rule="evenodd" clip-rule="evenodd" d="M1585.03 584.345L1531.47 548.468C1477.92 512.591 1370.81 440.836 1305.32 347.29C1239.82 253.744 1215.95 138.407 1094.97 73.9162C973.988 9.42532 755.902 -4.21917 662.666 -83.2375C569.43 -162.256 601.043 -306.648 616.85 -378.844L632.656 -451.04L299.724 -276.71L325.534 -226.305C351.344 -175.9 402.963 -75.0907 454.583 25.7189C506.203 126.529 557.823 227.338 609.442 328.148C661.062 428.958 712.682 529.767 764.302 630.577C815.921 731.387 867.541 832.196 893.351 882.601L919.161 933.006L1585.03 584.345Z" fill="#E6DBC6"/>
<path fill-rule="evenodd" clip-rule="evenodd" d="M253.297 1281.66L255.231 1216.73C257.166 1151.8 261.035 1021.93 223.287 913.861C185.54 805.788 106.176 719.506 123.917 582.377C141.658 445.249 256.504 257.274 246.501 134.673C236.498 12.0718 101.645 -45.1552 34.2187 -73.7688L-33.2077 -102.382L299.725 -276.713L325.534 -226.308C351.344 -175.903 402.964 -75.0933 454.584 25.7163C506.204 126.526 557.823 227.336 609.443 328.145C661.063 428.955 712.682 529.765 764.302 630.574C815.922 731.384 867.542 832.194 893.352 882.599L919.161 933.003L253.297 1281.66Z" fill="#E6DBC6"/>
<path fill-rule="evenodd" clip-rule="evenodd" d="M318.438 1272.38L320.372 1207.44C322.306 1142.51 326.175 1012.65 288.428 904.574C250.68 796.5 171.316 710.218 189.057 573.09C206.799 435.961 321.645 247.986 311.642 125.385C301.639 2.78425 166.786 -54.4428 99.3593 -83.0564L31.9329 -111.67L364.865 -286L390.675 -235.595C416.485 -185.191 468.105 -84.3809 519.724 16.4287C571.344 117.238 622.964 218.048 674.584 318.858C726.203 419.667 777.823 520.477 829.443 621.287C881.063 722.096 932.682 822.906 958.492 873.311L984.302 923.716L318.438 1272.38Z" fill="#E6DBC6"/>
</g>
</g>
<defs>
<filter id="filter0_d_382_9143" x="-145.209" y="-451.041" width="1626.23" height="1740.7" filterUnits="userSpaceOnUse" color-interpolation-filters="sRGB">
<feFlood flood-opacity="0" result="BackgroundImageFix"/>
<feColorMatrix in="SourceAlpha" type="matrix" values="0 0 0 0 0 0 0 0 0 0 0 0 0 0 0 0 0 0 127 0" result="hardAlpha"/>
<feOffset dy="4"/>
<feGaussianBlur stdDeviation="2"/>
<feComposite in2="hardAlpha" operator="out"/>
<feColorMatrix type="matrix" values="0 0 0 0 0 0 0 0 0 0 0 0 0 0 0 0 0 0 0.5 0"/>
<feBlend mode="normal" in2="BackgroundImageFix" result="effect1_dropShadow_382_9143"/>
<feBlend mode="normal" in="SourceGraphic" in2="effect1_dropShadow_382_9143" result="shape"/>
</filter>
<filter id="filter1_d_382_9143" x="-77.207" y="-451.041" width="1626.23" height="1740.7" filterUnits="userSpaceOnUse" color-interpolation-filters="sRGB">
<feFlood flood-opacity="0" result="BackgroundImageFix"/>
<feColorMatrix in="SourceAlpha" type="matrix" values="0 0 0 0 0 0 0 0 0 0 0 0 0 0 0 0 0 0 127 0" result="hardAlpha"/>
<feOffset dy="4"/>
<feGaussianBlur stdDeviation="2"/>
<feComposite in2="hardAlpha" operator="out"/>
<feColorMatrix type="matrix" values="0 0 0 0 0 0 0 0 0 0 0 0 0 0 0 0 0 0 0.5 0"/>
<feBlend mode="normal" in2="BackgroundImageFix" result="effect1_dropShadow_382_9143"/>
<feBlend mode="normal" in="SourceGraphic" in2="effect1_dropShadow_382_9143" result="shape"/>
</filter>
<filter id="filter2_d_382_9143" x="-37.207" y="-451.041" width="1626.23" height="1740.7" filterUnits="userSpaceOnUse" color-interpolation-filters="sRGB">
<feFlood flood-opacity="0" result="BackgroundImageFix"/>
<feColorMatrix in="SourceAlpha" type="matrix" values="0 0 0 0 0 0 0 0 0 0 0 0 0 0 0 0 0 0 127 0" result="hardAlpha"/>
<feOffset dy="4"/>
<feGaussianBlur stdDeviation="2"/>
<feComposite in2="hardAlpha" operator="out"/>
<feColorMatrix type="matrix" values="0 0 0 0 0 0 0 0 0 0 0 0 0 0 0 0 0 0 0.5 0"/>
<feBlend mode="normal" in2="BackgroundImageFix" result="effect1_dropShadow_382_9143"/>
<feBlend mode="normal" in="SourceGraphic" in2="effect1_dropShadow_382_9143" result="shape"/>
</filter>
</defs>
</svg>
