<svg width="623" height="1024" viewBox="0 0 623 1024" fill="none" xmlns="http://www.w3.org/2000/svg">
<mask id="mask0_382_9149" style="mask-type:alpha" maskUnits="userSpaceOnUse" x="0" y="0" width="623" height="1024">
<rect width="623" height="1024" fill="#D9D9D9"/>
</mask>
<g mask="url(#mask0_382_9149)">
<g filter="url(#filter0_d_382_9149)">
<path fill-rule="evenodd" clip-rule="evenodd" d="M1473.02 584.345L1419.47 548.468C1365.91 512.591 1258.81 440.836 1193.31 347.29C1127.82 253.744 1103.95 138.407 982.967 73.9162C861.986 9.42532 643.9 -4.21917 550.664 -83.2375C457.428 -162.256 489.041 -306.648 504.848 -378.844L520.654 -451.04L187.722 -276.71L213.532 -226.305C239.342 -175.9 290.962 -75.0907 342.581 25.7189C394.201 126.529 445.821 227.338 497.44 328.148C549.06 428.958 600.68 529.767 652.3 630.577C703.919 731.387 755.539 832.196 781.349 882.601L807.159 933.006L1473.02 584.345Z" fill="#F6EFE3"/>
<path fill-rule="evenodd" clip-rule="evenodd" d="M141.295 1281.66L143.229 1216.73C145.164 1151.8 149.033 1021.93 111.285 913.861C73.5377 805.788 -5.82635 719.506 11.9148 582.377C29.656 445.249 144.502 257.274 134.499 134.673C124.496 12.0718 -10.3569 -45.1552 -77.7833 -73.7688L-145.21 -102.382L187.723 -276.713L213.532 -226.308C239.342 -175.903 290.962 -75.0933 342.582 25.7163C394.202 126.526 445.821 227.336 497.441 328.145C549.061 428.955 600.681 529.765 652.3 630.574C703.92 731.384 755.54 832.194 781.35 882.599L807.159 933.003L141.295 1281.66Z" fill="#F6EFE3"/>
</g>
<g filter="url(#filter1_d_382_9149)">
<path fill-rule="evenodd" clip-rule="evenodd" d="M1611.03 584.345L1557.47 548.468C1503.92 512.59 1396.81 440.836 1331.32 347.29C1265.82 253.744 1241.95 138.407 1120.97 73.9159C999.988 9.42507 781.902 -4.21941 688.666 -83.2378C595.43 -162.256 627.043 -306.648 642.85 -378.845L658.656 -451.041L325.724 -276.71L351.534 -226.305C377.344 -175.901 428.963 -75.091 480.583 25.7187C532.203 126.528 583.823 227.338 635.442 328.148C687.062 428.957 738.682 529.767 790.302 630.577C841.921 731.386 893.541 832.196 919.351 882.601L945.161 933.006L1611.03 584.345Z" fill="#EDE4D3"/>
<path fill-rule="evenodd" clip-rule="evenodd" d="M279.297 1281.66L281.231 1216.73C283.166 1151.8 287.035 1021.93 249.287 913.861C211.54 805.788 132.176 719.506 149.917 582.377C167.658 445.249 282.504 257.274 272.501 134.673C262.498 12.0718 127.645 -45.1552 60.2187 -73.7688L-7.20771 -102.382L325.725 -276.713L351.534 -226.308C377.344 -175.903 428.964 -75.0933 480.584 25.7163C532.204 126.526 583.823 227.336 635.443 328.145C687.063 428.955 738.682 529.765 790.302 630.574C841.922 731.384 893.542 832.194 919.352 882.599L945.161 933.003L279.297 1281.66Z" fill="#EDE4D3"/>
<path fill-rule="evenodd" clip-rule="evenodd" d="M344.438 1272.38L346.372 1207.44C348.306 1142.51 352.175 1012.65 314.428 904.574C276.68 796.5 197.316 710.218 215.057 573.09C232.799 435.961 347.645 247.986 337.642 125.385C327.639 2.78425 192.786 -54.4428 125.359 -83.0564L57.9329 -111.67L390.865 -286L416.675 -235.595C442.485 -185.191 494.105 -84.3809 545.724 16.4287C597.344 117.238 648.964 218.048 700.584 318.858C752.203 419.667 803.823 520.477 855.443 621.287C907.063 722.096 958.682 822.906 984.492 873.311L1010.3 923.716L344.438 1272.38Z" fill="#EDE4D3"/>
</g>
<g filter="url(#filter2_d_382_9149)">
<path fill-rule="evenodd" clip-rule="evenodd" d="M1744.03 584.345L1690.47 548.468C1636.92 512.59 1529.81 440.836 1464.32 347.29C1398.82 253.744 1374.95 138.407 1253.97 73.9159C1132.99 9.42507 914.902 -4.21941 821.666 -83.2378C728.43 -162.256 760.043 -306.648 775.85 -378.845L791.656 -451.041L458.724 -276.71L484.534 -226.305C510.344 -175.901 561.963 -75.091 613.583 25.7187C665.203 126.528 716.823 227.338 768.442 328.148C820.062 428.957 871.682 529.767 923.302 630.577C974.921 731.386 1026.54 832.196 1052.35 882.601L1078.16 933.006L1744.03 584.345Z" fill="#E6DBC6"/>
<path fill-rule="evenodd" clip-rule="evenodd" d="M412.297 1281.66L414.231 1216.73C416.166 1151.8 420.035 1021.93 382.287 913.861C344.54 805.788 265.176 719.506 282.917 582.377C300.658 445.249 415.504 257.274 405.501 134.673C395.498 12.0718 260.645 -45.1552 193.219 -73.7688L125.792 -102.382L458.725 -276.713L484.534 -226.308C510.344 -175.903 561.964 -75.0933 613.584 25.7163C665.204 126.526 716.823 227.336 768.443 328.145C820.063 428.955 871.682 529.765 923.302 630.574C974.922 731.384 1026.54 832.194 1052.35 882.599L1078.16 933.003L412.297 1281.66Z" fill="#E6DBC6"/>
<path fill-rule="evenodd" clip-rule="evenodd" d="M477.438 1272.38L479.372 1207.44C481.306 1142.51 485.175 1012.65 447.428 904.574C409.68 796.5 330.316 710.218 348.057 573.09C365.799 435.961 480.645 247.986 470.642 125.385C460.639 2.78425 325.786 -54.4428 258.359 -83.0564L190.933 -111.67L523.865 -286L549.675 -235.595C575.485 -185.191 627.105 -84.3809 678.724 16.4287C730.344 117.238 781.964 218.048 833.584 318.858C885.203 419.667 936.823 520.477 988.443 621.287C1040.06 722.096 1091.68 822.906 1117.49 873.311L1143.3 923.716L477.438 1272.38Z" fill="#E6DBC6"/>
</g>
</g>
<defs>
<filter id="filter0_d_382_9149" x="-149.209" y="-451.041" width="1626.23" height="1740.7" filterUnits="userSpaceOnUse" color-interpolation-filters="sRGB">
<feFlood flood-opacity="0" result="BackgroundImageFix"/>
<feColorMatrix in="SourceAlpha" type="matrix" values="0 0 0 0 0 0 0 0 0 0 0 0 0 0 0 0 0 0 127 0" result="hardAlpha"/>
<feOffset dy="4"/>
<feGaussianBlur stdDeviation="2"/>
<feComposite in2="hardAlpha" operator="out"/>
<feColorMatrix type="matrix" values="0 0 0 0 0 0 0 0 0 0 0 0 0 0 0 0 0 0 0.1 0"/>
<feBlend mode="normal" in2="BackgroundImageFix" result="effect1_dropShadow_382_9149"/>
<feBlend mode="normal" in="SourceGraphic" in2="effect1_dropShadow_382_9149" result="shape"/>
</filter>
<filter id="filter1_d_382_9149" x="-11.207" y="-451.041" width="1626.23" height="1740.7" filterUnits="userSpaceOnUse" color-interpolation-filters="sRGB">
<feFlood flood-opacity="0" result="BackgroundImageFix"/>
<feColorMatrix in="SourceAlpha" type="matrix" values="0 0 0 0 0 0 0 0 0 0 0 0 0 0 0 0 0 0 127 0" result="hardAlpha"/>
<feOffset dy="4"/>
<feGaussianBlur stdDeviation="2"/>
<feComposite in2="hardAlpha" operator="out"/>
<feColorMatrix type="matrix" values="0 0 0 0 0 0 0 0 0 0 0 0 0 0 0 0 0 0 0.1 0"/>
<feBlend mode="normal" in2="BackgroundImageFix" result="effect1_dropShadow_382_9149"/>
<feBlend mode="normal" in="SourceGraphic" in2="effect1_dropShadow_382_9149" result="shape"/>
</filter>
<filter id="filter2_d_382_9149" x="121.793" y="-451.041" width="1626.23" height="1740.7" filterUnits="userSpaceOnUse" color-interpolation-filters="sRGB">
<feFlood flood-opacity="0" result="BackgroundImageFix"/>
<feColorMatrix in="SourceAlpha" type="matrix" values="0 0 0 0 0 0 0 0 0 0 0 0 0 0 0 0 0 0 127 0" result="hardAlpha"/>
<feOffset dy="4"/>
<feGaussianBlur stdDeviation="2"/>
<feComposite in2="hardAlpha" operator="out"/>
<feColorMatrix type="matrix" values="0 0 0 0 0 0 0 0 0 0 0 0 0 0 0 0 0 0 0.1 0"/>
<feBlend mode="normal" in2="BackgroundImageFix" result="effect1_dropShadow_382_9149"/>
<feBlend mode="normal" in="SourceGraphic" in2="effect1_dropShadow_382_9149" result="shape"/>
</filter>
</defs>
</svg>
