<svg width="635" height="1024" viewBox="0 0 635 1024" fill="none" xmlns="http://www.w3.org/2000/svg">
<mask id="mask0_382_9139" style="mask-type:alpha" maskUnits="userSpaceOnUse" x="0" y="0" width="635" height="1024">
<rect width="635" height="1024" fill="#D9D9D9"/>
</mask>
<g mask="url(#mask0_382_9139)">
<path fill-rule="evenodd" clip-rule="evenodd" d="M-228 -146.423L-207.205 -89.6911C-186.411 -32.9588 -144.821 80.5058 -131.647 195.145C-118.472 309.783 -133.713 425.597 -82.6519 538.67C-31.591 651.743 85.7711 762.076 117.889 875.932C150.006 989.788 96.8797 1107.17 70.3163 1165.86L43.753 1224.55L271.071 1215.15L269.22 1157.64C267.369 1100.12 263.666 985.091 259.963 870.061C256.26 755.03 252.557 640 248.854 524.97C245.151 409.94 241.448 294.909 237.746 179.879C234.043 64.8488 230.34 -50.1814 228.488 -107.697L226.637 -165.212L-228 -146.423Z" fill="#E7F3EC"/>
<path fill-rule="evenodd" clip-rule="evenodd" d="M681.274 -184L664.183 -125.702C647.091 -67.4036 612.907 49.1924 607.139 164.614C601.37 280.036 624.016 394.283 580.361 511.271C536.706 628.258 426.749 747.985 402.037 864.19C377.325 980.394 437.858 1093.08 468.124 1149.42L498.391 1205.76L271.071 1215.15L269.22 1157.64C267.369 1100.12 263.666 985.091 259.963 870.061C256.26 755.03 252.557 640 248.854 524.97C245.151 409.94 241.448 294.909 237.746 179.879C234.043 64.8488 230.34 -50.1814 228.488 -107.697L226.637 -165.212L681.274 -184Z" fill="#E7F3EC"/>
<path fill-rule="evenodd" clip-rule="evenodd" d="M-365 -127.423L-344.205 -70.6911C-323.411 -13.9588 -281.821 99.5058 -268.647 214.145C-255.472 328.783 -270.713 444.597 -219.652 557.67C-168.591 670.743 -51.2289 781.076 -19.1112 894.932C13.0065 1008.79 -40.1203 1126.17 -66.6836 1184.86L-93.247 1243.55L134.071 1234.15L132.22 1176.64C130.369 1119.12 126.666 1004.09 122.963 889.061C119.26 774.03 115.557 659 111.854 543.97C108.151 428.94 104.448 313.909 100.746 198.879C97.0427 83.8488 93.3398 -31.1814 91.4884 -88.6966L89.637 -146.212L-365 -127.423Z" fill="#CEE6D9"/>
<path fill-rule="evenodd" clip-rule="evenodd" d="M544.274 -165L527.183 -106.702C510.091 -48.4036 475.907 68.1924 470.139 183.614C464.37 299.036 487.016 413.283 443.361 530.271C399.706 647.258 289.749 766.985 265.037 883.19C240.325 999.394 300.858 1112.08 331.124 1168.42L361.391 1224.76L134.071 1234.15L132.22 1176.64C130.369 1119.12 126.666 1004.09 122.963 889.061C119.26 774.03 115.557 659 111.854 543.97C108.151 428.94 104.448 313.909 100.746 198.879C97.0427 83.8488 93.3398 -31.1814 91.4884 -88.6966L89.637 -146.212L544.274 -165Z" fill="#CEE6D9"/>
<path fill-rule="evenodd" clip-rule="evenodd" d="M-487 -127.423L-466.205 -70.691C-445.411 -13.9587 -403.821 99.5058 -390.647 214.145C-377.472 328.784 -392.713 444.597 -341.652 557.67C-290.591 670.743 -173.229 781.076 -141.111 894.932C-108.994 1008.79 -162.12 1126.17 -188.684 1184.86L-215.247 1243.55L12.0715 1234.15L10.22 1176.64C8.36859 1119.12 4.66571 1004.09 0.96283 889.061C-2.74005 774.03 -6.44291 659 -10.1458 543.97C-13.8487 428.94 -17.5515 313.909 -21.2544 198.879C-24.9573 83.8489 -28.6602 -31.1814 -30.5116 -88.6965L-32.363 -146.212L-487 -127.423Z" fill="#BEDCCF"/>
<path fill-rule="evenodd" clip-rule="evenodd" d="M422.274 -164.999L405.183 -106.701C388.091 -48.4035 353.907 68.1925 348.139 183.614C342.37 299.036 365.016 413.283 321.361 530.271C277.706 647.258 167.749 766.985 143.037 883.19C118.325 999.394 178.858 1112.08 209.124 1168.42L239.391 1224.76L12.0715 1234.15L10.22 1176.64C8.36859 1119.12 4.66571 1004.09 0.96283 889.061C-2.74005 774.03 -6.44291 659 -10.1458 543.97C-13.8487 428.94 -17.5515 313.909 -21.2544 198.879C-24.9573 83.8489 -28.6602 -31.1814 -30.5116 -88.6965L-32.363 -146.212L422.274 -164.999Z" fill="#BEDCCF"/>
</g>
</svg>
