<svg width="40" height="40" viewBox="0 0 40 40" fill="none" xmlns="http://www.w3.org/2000/svg">
<g filter="url(#filter0_d_501_477)">
<path d="M5.64105 4.40497C5.64105 2.19583 7.43191 0.404968 9.64105 0.404968H32C34.2092 0.404968 36 2.19583 36 4.40497V27.5948C36 29.804 34.2092 31.5948 32 31.5948H9.64105C7.43191 31.5948 5.64105 29.804 5.64105 27.5948V4.40497Z" fill="#F5ECDB"/>
<path d="M4 2.46154C4 1.10207 5.10207 0 6.46154 0C7.82101 0 8.92308 1.10207 8.92308 2.46154V29.5385C8.92308 30.8979 7.82101 32 6.46154 32C5.10207 32 4 30.8979 4 29.5385V2.46154Z" fill="#F1E7D4"/>
</g>
<path d="M26.4551 6.02147C26.8067 5.9523 27.1709 6.0523 27.4376 6.2923C27.7259 6.52897 27.8959 6.8798 27.9017 7.25313C27.8826 7.63397 27.6959 7.98647 27.3917 8.21647L25.5734 9.67313C25.5143 9.71407 25.4647 9.76727 25.428 9.82911C25.3914 9.89095 25.3685 9.95997 25.3609 10.0315C25.3495 10.0935 25.3519 10.1572 25.3677 10.2183C25.3835 10.2793 25.4125 10.3361 25.4526 10.3848C26.1054 11.1235 26.5207 12.0416 26.6444 13.0196C26.768 13.9976 26.5943 14.9902 26.1459 15.8681C24.9842 18.1931 22.3934 19.1931 19.8951 18.3073C19.7609 18.2602 19.6152 18.2573 19.4792 18.299C19.2926 18.3573 19.2267 18.449 19.1017 18.6181L19.0901 18.6348L18.3059 19.6798C18.3059 19.6798 17.6459 20.5006 18.6867 20.459C21.2092 20.3598 21.8676 20.3598 23.2192 20.4506C25.4201 20.6006 26.3909 22.0365 26.3909 23.1798C26.3909 24.5323 25.5276 25.999 23.2167 25.999C21.6846 25.9548 20.1517 25.9465 18.6192 25.974C18.3609 25.9781 18.1217 25.9848 17.9234 25.9906C17.7334 25.9956 17.5817 25.9998 17.4901 25.9998C16.8967 25.9998 16.1167 25.8448 16.1067 25.1098C16.1001 24.5023 16.6267 24.1765 17.0317 24.1331C17.3901 24.0956 17.7109 24.139 18.0651 24.1865C18.2751 24.2148 18.4967 24.2448 18.7442 24.2598C18.8984 24.269 19.0492 24.2806 19.2042 24.2915C19.6459 24.3231 20.1226 24.3581 20.8092 24.364C21.1651 24.3681 21.4417 24.3723 21.6634 24.3765C22.2426 24.3865 22.4476 24.3898 22.7301 24.364C23.7701 24.2706 24.2567 23.8556 24.2567 23.2173C24.2567 22.5465 23.7701 22.164 22.8417 22.039C21.5384 21.8615 20.9001 21.9031 19.7417 21.9773C19.2784 22.0081 18.8147 22.0345 18.3509 22.0565C17.8442 22.0806 16.3101 22.0781 16.1159 20.8131C16.0717 20.4665 16.0551 19.8831 16.7884 18.8756L17.4134 18.0398C17.7134 17.6315 17.8984 17.2915 17.4576 16.7406C17.4576 16.7406 17.1326 16.3506 17.0242 16.209C16.0117 14.8865 15.7642 12.809 16.6509 11.114C17.9651 8.6048 21.1509 7.56397 23.6259 8.96313C23.8367 9.0823 23.9909 9.1323 24.1717 9.09897C24.3392 9.0723 24.3967 8.9598 24.4742 8.8123C24.4909 8.77897 24.5095 8.74397 24.5301 8.7073C24.5334 8.69897 24.7309 8.3198 24.9759 7.85063L25.5876 6.67563C25.6736 6.50834 25.7963 6.36263 25.9465 6.24937C26.0967 6.1361 26.2706 6.0582 26.4551 6.02147ZM19.6609 17.0356C21.2059 17.7881 22.9209 17.209 24.0392 14.9773C25.1659 12.7281 24.7284 10.719 23.1717 9.95813C21.0984 8.9473 19.3417 10.859 18.6809 12.1748C17.5517 14.4231 18.0834 16.2465 19.6367 17.0231L19.6609 17.0356Z" fill="#035852"/>
<defs>
<filter id="filter0_d_501_477" x="0" y="0" width="40" height="40" filterUnits="userSpaceOnUse" color-interpolation-filters="sRGB">
<feFlood flood-opacity="0" result="BackgroundImageFix"/>
<feColorMatrix in="SourceAlpha" type="matrix" values="0 0 0 0 0 0 0 0 0 0 0 0 0 0 0 0 0 0 127 0" result="hardAlpha"/>
<feOffset dy="4"/>
<feGaussianBlur stdDeviation="2"/>
<feComposite in2="hardAlpha" operator="out"/>
<feColorMatrix type="matrix" values="0 0 0 0 0 0 0 0 0 0 0 0 0 0 0 0 0 0 0.25 0"/>
<feBlend mode="normal" in2="BackgroundImageFix" result="effect1_dropShadow_501_477"/>
<feBlend mode="normal" in="SourceGraphic" in2="effect1_dropShadow_501_477" result="shape"/>
</filter>
</defs>
</svg>
