<svg width="40" height="40" viewBox="0 0 40 40" fill="none" xmlns="http://www.w3.org/2000/svg">
<g filter="url(#filter0_d_501_504)">
<path d="M5.64105 4.40497C5.64105 2.19583 7.43191 0.404968 9.64105 0.404968H32C34.2092 0.404968 36 2.19583 36 4.40497V27.5948C36 29.804 34.2092 31.5948 32 31.5948H9.64105C7.43191 31.5948 5.64105 29.804 5.64105 27.5948V4.40497Z" fill="#F5ECDB"/>
<path d="M4 2.46154C4 1.10207 5.10207 0 6.46154 0C7.82101 0 8.92308 1.10207 8.92308 2.46154V29.5385C8.92308 30.8979 7.82101 32 6.46154 32C5.10207 32 4 30.8979 4 29.5385V2.46154Z" fill="#F1E7D4"/>
</g>
<path d="M19.7553 19.5665C19.2818 22.1821 18.7053 24.6903 16.9947 26C16.4678 22.0468 17.7705 19.0771 18.375 15.9251C17.3437 14.0924 18.4995 10.4031 20.6743 11.3118C23.3508 12.4306 18.3563 18.1262 21.7094 18.8382C25.2103 19.5809 26.6402 12.4258 24.4691 10.098C21.3322 6.73872 15.3382 10.0222 16.0757 14.8322C16.2554 16.0086 17.4055 16.3655 16.5352 17.989C14.5278 17.5179 13.9289 15.8464 14.0066 13.6175C14.1301 9.97132 17.1107 7.4171 20.0997 7.064C23.8805 6.61687 27.4282 8.52918 27.9176 12.2838C28.4698 16.521 26.2116 21.1113 22.1698 20.7802C21.0739 20.691 20.6135 20.1182 19.7553 19.5665Z" fill="#035852"/>
<defs>
<filter id="filter0_d_501_504" x="0" y="0" width="40" height="40" filterUnits="userSpaceOnUse" color-interpolation-filters="sRGB">
<feFlood flood-opacity="0" result="BackgroundImageFix"/>
<feColorMatrix in="SourceAlpha" type="matrix" values="0 0 0 0 0 0 0 0 0 0 0 0 0 0 0 0 0 0 127 0" result="hardAlpha"/>
<feOffset dy="4"/>
<feGaussianBlur stdDeviation="2"/>
<feComposite in2="hardAlpha" operator="out"/>
<feColorMatrix type="matrix" values="0 0 0 0 0 0 0 0 0 0 0 0 0 0 0 0 0 0 0.25 0"/>
<feBlend mode="normal" in2="BackgroundImageFix" result="effect1_dropShadow_501_504"/>
<feBlend mode="normal" in="SourceGraphic" in2="effect1_dropShadow_501_504" result="shape"/>
</filter>
</defs>
</svg>
