<svg width="52" height="54" viewBox="0 0 52 54" fill="none" xmlns="http://www.w3.org/2000/svg">
<g filter="url(#filter0_d_77_453)">
<rect x="4.16895" y="0.581848" width="43.8308" height="44.8354" rx="4" fill="#F5ECDB"/>
<rect x="4" width="7.1077" height="46" rx="3" fill="#F1E7D4"/>
<g filter="url(#filter1_i_77_453)">
<path d="M25.5189 34.9998C24.9517 34.9998 24.4634 34.8198 24.0542 34.4598C23.645 34.0998 23.3979 33.6598 23.313 33.1398L23.0294 31.1598C22.7563 31.0598 22.4992 30.9398 22.258 30.7998C22.0168 30.6598 21.7803 30.5098 21.5483 30.3498L19.5945 31.1298C19.0693 31.3498 18.5441 31.3698 18.0189 31.1898C17.4937 31.0098 17.084 30.6898 16.7899 30.2298L15.3088 27.7698C15.0147 27.3098 14.9307 26.8198 15.0567 26.2998C15.1828 25.7798 15.4664 25.3498 15.9076 25.0098L17.5777 23.8098C17.5567 23.6698 17.5462 23.5346 17.5462 23.4042V22.5942C17.5462 22.4646 17.5567 22.3298 17.5777 22.1898L15.9076 20.9898C15.4664 20.6498 15.1828 20.2198 15.0567 19.6998C14.9307 19.1798 15.0147 18.6898 15.3088 18.2298L16.7899 15.7698C17.084 15.3098 17.4937 14.9898 18.0189 14.8098C18.5441 14.6298 19.0693 14.6498 19.5945 14.8698L21.5483 15.6498C21.7794 15.4898 22.021 15.3398 22.2731 15.1998C22.5252 15.0598 22.7773 14.9398 23.0294 14.8398L23.313 12.8598C23.3971 12.3398 23.6441 11.8998 24.0542 11.5398C24.4643 11.1798 24.9525 10.9998 25.5189 10.9998H28.4811C29.0483 10.9998 29.537 11.1798 29.9471 11.5398C30.3571 11.8998 30.6038 12.3398 30.687 12.8598L30.9706 14.8398C31.2437 14.9398 31.5013 15.0598 31.7433 15.1998C31.9853 15.3398 32.2214 15.4898 32.4517 15.6498L34.4055 14.8698C34.9307 14.6498 35.4559 14.6298 35.9811 14.8098C36.5063 14.9898 36.916 15.3098 37.2101 15.7698L38.6912 18.2298C38.9853 18.6898 39.0693 19.1798 38.9433 19.6998C38.8172 20.2198 38.5336 20.6498 38.0924 20.9898L36.4223 22.1898C36.4433 22.3298 36.4538 22.465 36.4538 22.5954V23.4042C36.4538 23.5346 36.4328 23.6698 36.3908 23.8098L38.0609 25.0098C38.5021 25.3498 38.7857 25.7798 38.9118 26.2998C39.0378 26.8198 38.9538 27.3098 38.6597 27.7698L37.1471 30.2298C36.8529 30.6898 36.4433 31.0098 35.9181 31.1898C35.3929 31.3698 34.8676 31.3498 34.3424 31.1298L32.4517 30.3498C32.2206 30.5098 31.979 30.6598 31.7269 30.7998C31.4748 30.9398 31.2227 31.0598 30.9706 31.1598L30.687 33.1398C30.6029 33.6598 30.3563 34.0998 29.9471 34.4598C29.5378 34.8198 29.0492 34.9998 28.4811 34.9998H25.5189ZM27.063 27.1998C28.2815 27.1998 29.3214 26.7898 30.1828 25.9698C31.0441 25.1498 31.4748 24.1598 31.4748 22.9998C31.4748 21.8398 31.0441 20.8498 30.1828 20.0298C29.3214 19.2098 28.2815 18.7998 27.063 18.7998C25.8235 18.7998 24.7782 19.2098 23.9269 20.0298C23.0756 20.8498 22.6504 21.8398 22.6513 22.9998C22.6521 24.1598 23.0777 25.1498 23.9282 25.9698C24.7786 26.7898 25.8235 27.1998 27.063 27.1998Z" fill="#035852"/>
</g>
</g>
<defs>
<filter id="filter0_d_77_453" x="0" y="0" width="52" height="54" filterUnits="userSpaceOnUse" color-interpolation-filters="sRGB">
<feFlood flood-opacity="0" result="BackgroundImageFix"/>
<feColorMatrix in="SourceAlpha" type="matrix" values="0 0 0 0 0 0 0 0 0 0 0 0 0 0 0 0 0 0 127 0" result="hardAlpha"/>
<feOffset dy="4"/>
<feGaussianBlur stdDeviation="2"/>
<feComposite in2="hardAlpha" operator="out"/>
<feColorMatrix type="matrix" values="0 0 0 0 0 0 0 0 0 0 0 0 0 0 0 0 0 0 0.25 0"/>
<feBlend mode="normal" in2="BackgroundImageFix" result="effect1_dropShadow_77_453"/>
<feBlend mode="normal" in="SourceGraphic" in2="effect1_dropShadow_77_453" result="shape"/>
</filter>
<filter id="filter1_i_77_453" x="15" y="10.9998" width="24" height="28" filterUnits="userSpaceOnUse" color-interpolation-filters="sRGB">
<feFlood flood-opacity="0" result="BackgroundImageFix"/>
<feBlend mode="normal" in="SourceGraphic" in2="BackgroundImageFix" result="shape"/>
<feColorMatrix in="SourceAlpha" type="matrix" values="0 0 0 0 0 0 0 0 0 0 0 0 0 0 0 0 0 0 127 0" result="hardAlpha"/>
<feOffset dy="4"/>
<feGaussianBlur stdDeviation="2"/>
<feComposite in2="hardAlpha" operator="arithmetic" k2="-1" k3="1"/>
<feColorMatrix type="matrix" values="0 0 0 0 0 0 0 0 0 0 0 0 0 0 0 0 0 0 0.25 0"/>
<feBlend mode="normal" in2="shape" result="effect1_innerShadow_77_453"/>
</filter>
</defs>
</svg>
