<svg width="40" height="42" viewBox="0 0 40 42" fill="none" xmlns="http://www.w3.org/2000/svg">
<rect x="0.154297" y="0.53125" width="39.8462" height="40.9367" rx="4" fill="#F5ECDB"/>
<rect width="6.46154" height="42" rx="3" fill="#F1E7D4"/>
<g filter="url(#filter0_i_77_402)">
<path d="M18.6423 32C18.1224 32 17.6748 31.835 17.2997 31.505C16.9245 31.175 16.6981 30.7717 16.6203 30.295L16.3603 28.48C16.1099 28.3883 15.8742 28.2783 15.6532 28.15C15.4321 28.0217 15.2152 27.8842 15.0026 27.7375L13.2117 28.4525C12.7302 28.6542 12.2488 28.6725 11.7673 28.5075C11.2859 28.3425 10.9104 28.0492 10.6408 27.6275L9.28309 25.3725C9.01348 24.9508 8.93645 24.5017 9.052 24.025C9.16754 23.5483 9.42752 23.1542 9.83193 22.8425L11.3629 21.7425C11.3437 21.6142 11.334 21.4902 11.334 21.3707V20.6282C11.334 20.5094 11.3437 20.3858 11.3629 20.2575L9.83193 19.1575C9.42752 18.8458 9.16754 18.4517 9.052 17.975C8.93645 17.4983 9.01348 17.0492 9.28309 16.6275L10.6408 14.3725C10.9104 13.9508 11.2859 13.6575 11.7673 13.4925C12.2488 13.3275 12.7302 13.3458 13.2117 13.5475L15.0026 14.2625C15.2145 14.1158 15.4359 13.9783 15.667 13.85C15.8981 13.7217 16.1292 13.6117 16.3603 13.52L16.6203 11.705C16.6973 11.2283 16.9238 10.825 17.2997 10.495C17.6756 10.165 18.1231 10 18.6423 10H21.3577C21.8776 10 22.3256 10.165 22.7015 10.495C23.0774 10.825 23.3035 11.2283 23.3797 11.705L23.6397 13.52C23.8901 13.6117 24.1262 13.7217 24.348 13.85C24.5699 13.9783 24.7863 14.1158 24.9974 14.2625L26.7883 13.5475C27.2698 13.3458 27.7512 13.3275 28.2327 13.4925C28.7141 13.6575 29.0896 13.9508 29.3592 14.3725L30.7169 16.6275C30.9865 17.0492 31.0636 17.4983 30.948 17.975C30.8325 18.4517 30.5725 18.8458 30.1681 19.1575L28.6371 20.2575C28.6563 20.3858 28.666 20.5098 28.666 20.6293V21.3707C28.666 21.4902 28.6467 21.6142 28.6082 21.7425L30.1392 22.8425C30.5436 23.1542 30.8036 23.5483 30.9191 24.025C31.0347 24.5017 30.9576 24.9508 30.688 25.3725L29.3015 27.6275C29.0319 28.0492 28.6563 28.3425 28.1749 28.5075C27.6935 28.6725 27.212 28.6542 26.7306 28.4525L24.9974 27.7375C24.7855 27.8842 24.5641 28.0217 24.333 28.15C24.1019 28.2783 23.8708 28.3883 23.6397 28.48L23.3797 30.295C23.3027 30.7717 23.0766 31.175 22.7015 31.505C22.3263 31.835 21.8784 32 21.3577 32H18.6423ZM20.0578 24.85C21.1747 24.85 22.128 24.4742 22.9175 23.7225C23.7071 22.9708 24.1019 22.0633 24.1019 21C24.1019 19.9367 23.7071 19.0292 22.9175 18.2775C22.128 17.5258 21.1747 17.15 20.0578 17.15C18.9216 17.15 17.9633 17.5258 17.183 18.2775C16.4027 19.0292 16.0129 19.9367 16.0137 21C16.0144 22.0633 16.4046 22.9708 17.1841 23.7225C17.9637 24.4742 18.9216 24.85 20.0578 24.85Z" fill="#447660"/>
</g>
<defs>
<filter id="filter0_i_77_402" x="9" y="10" width="22" height="26" filterUnits="userSpaceOnUse" color-interpolation-filters="sRGB">
<feFlood flood-opacity="0" result="BackgroundImageFix"/>
<feBlend mode="normal" in="SourceGraphic" in2="BackgroundImageFix" result="shape"/>
<feColorMatrix in="SourceAlpha" type="matrix" values="0 0 0 0 0 0 0 0 0 0 0 0 0 0 0 0 0 0 127 0" result="hardAlpha"/>
<feOffset dy="4"/>
<feGaussianBlur stdDeviation="2"/>
<feComposite in2="hardAlpha" operator="arithmetic" k2="-1" k3="1"/>
<feColorMatrix type="matrix" values="0 0 0 0 0 0 0 0 0 0 0 0 0 0 0 0 0 0 0.25 0"/>
<feBlend mode="normal" in2="shape" result="effect1_innerShadow_77_402"/>
</filter>
</defs>
</svg>
