<svg width="40" height="42" viewBox="0 0 40 42" fill="none" xmlns="http://www.w3.org/2000/svg">
<rect x="0.154297" y="0.53125" width="39.8462" height="40.9367" rx="4" fill="#F5ECDB"/>
<rect width="6.46154" height="42" rx="3" fill="#F1E7D4"/>
<g filter="url(#filter0_i_77_411)">
<path d="M15.4872 10C15.0184 10 14.641 10.4146 14.641 10.9296V27.662C14.641 28.177 15.0184 28.5915 15.4872 28.5915H17.1795C17.6483 28.5915 18.0256 28.177 18.0256 27.662V10.9296C18.0256 10.4146 17.6483 10 17.1795 10H15.4872ZM20.5641 11.8592C19.5312 11.8592 18.8718 12.4287 18.8718 12.9437V20.2254V27.662C18.8718 28.177 19.5312 28.5915 20.5641 28.5915H22.2564C22.7252 28.5915 23.1026 28.177 23.1026 27.662V12.7887C23.1026 12.2737 22.7252 11.8592 22.2564 11.8592H20.5641ZM26.006 13.6997C25.9476 13.7043 25.8897 13.7155 25.8334 13.7332L24.2003 14.2128C24.0929 14.2445 23.9923 14.2992 23.9042 14.3736C23.816 14.4481 23.7421 14.5408 23.6867 14.6467C23.6312 14.7525 23.5952 14.8693 23.5809 14.9904C23.5665 15.1116 23.574 15.2346 23.6029 15.3525L26.666 27.9241C26.6948 28.0423 26.7446 28.153 26.8125 28.25C26.8804 28.3469 26.965 28.4282 27.0615 28.4892C27.1581 28.5502 27.2646 28.5896 27.375 28.6053C27.4855 28.6209 27.5976 28.6125 27.7051 28.5804L29.3382 28.097C29.5542 28.033 29.7384 27.8775 29.8504 27.6646C29.9623 27.4517 29.993 27.1987 29.9355 26.9611L26.8725 14.3895C26.8222 14.1828 26.7085 14.0015 26.5506 13.8762C26.3928 13.7508 26.2004 13.6873 26.006 13.6997ZM11.2564 13.7183C10.7876 13.7183 10.4103 14.1329 10.4103 14.6479V27.662C10.4103 28.177 10.7876 28.5915 11.2564 28.5915H12.9487C13.4175 28.5915 13.7949 28.177 13.7949 27.662V14.6479C13.7949 14.1329 13.4175 13.7183 12.9487 13.7183H11.2564ZM9.84615 29.5211C9.62174 29.5211 9.40652 29.6191 9.24783 29.7934C9.08915 29.9677 9 30.2042 9 30.4507C9 30.6972 9.08915 31.5534 9.24783 31.7277C9.40652 31.9021 9.62174 32 9.84615 32H30.1538C30.3783 32 30.5935 31.9021 30.7522 31.7277C30.9109 31.5534 31 30.6972 31 30.4507C31 30.2042 30.9109 29.9677 30.7522 29.7934C30.5935 29.6191 30.3783 29.5211 30.1538 29.5211H9.84615Z" fill="#447660"/>
</g>
<defs>
<filter id="filter0_i_77_411" x="9" y="10" width="22" height="26" filterUnits="userSpaceOnUse" color-interpolation-filters="sRGB">
<feFlood flood-opacity="0" result="BackgroundImageFix"/>
<feBlend mode="normal" in="SourceGraphic" in2="BackgroundImageFix" result="shape"/>
<feColorMatrix in="SourceAlpha" type="matrix" values="0 0 0 0 0 0 0 0 0 0 0 0 0 0 0 0 0 0 127 0" result="hardAlpha"/>
<feOffset dy="4"/>
<feGaussianBlur stdDeviation="2"/>
<feComposite in2="hardAlpha" operator="arithmetic" k2="-1" k3="1"/>
<feColorMatrix type="matrix" values="0 0 0 0 0 0 0 0 0 0 0 0 0 0 0 0 0 0 0.25 0"/>
<feBlend mode="normal" in2="shape" result="effect1_innerShadow_77_411"/>
</filter>
</defs>
</svg>
