<svg width="74" height="74" viewBox="0 0 74 74" fill="none" xmlns="http://www.w3.org/2000/svg">
<path d="M74 37C74 57.4345 57.4345 74 37 74C16.5655 74 0 57.4345 0 37C0 16.5655 16.5655 0 37 0C57.4345 0 74 16.5655 74 37Z" fill="#FFFBF3"/>
<path d="M55.5001 43.8657C57.6028 43.8657 59.6195 44.7011 61.1064 46.188C62.5933 47.6749 63.4286 49.6915 63.4286 51.7943V53.6839C63.4286 63.1374 52.3022 70.2943 37.0001 70.2943C21.6979 70.2943 10.5715 63.5101 10.5715 53.6839V51.7943C10.5715 49.6915 11.4068 47.6749 12.8937 46.188C14.3806 44.7011 16.3973 43.8657 18.5001 43.8657H55.5001ZM37.0001 6.86575C39.0824 6.86575 41.1444 7.27591 43.0683 8.0728C44.9922 8.8697 46.7403 10.0377 48.2128 11.5102C49.6852 12.9827 50.8532 14.7307 51.6501 16.6546C52.447 18.5785 52.8572 20.6405 52.8572 22.7229C52.8572 24.8053 52.447 26.8673 51.6501 28.7911C50.8532 30.715 49.6852 32.4631 48.2128 33.9356C46.7403 35.408 44.9922 36.5761 43.0683 37.373C41.1444 38.1699 39.0824 38.58 37.0001 38.58C32.7945 38.58 28.7612 36.9094 25.7874 33.9356C22.8136 30.9618 21.1429 26.9285 21.1429 22.7229C21.1429 18.5173 22.8136 14.484 25.7874 11.5102C28.7612 8.53641 32.7945 6.86575 37.0001 6.86575Z" fill="#F6B861"/>
</svg>
