<svg width="511" height="49" viewBox="0 0 511 49" fill="none" xmlns="http://www.w3.org/2000/svg">
<g filter="url(#filter0_d_565_104)">
<path d="M505.5 1.6377L467.424 20.5L505.5 39.3623V39.5H5.5V1.5H505.5V1.6377Z" fill="#CEE6D9"/>
<path d="M505.5 1.6377L506.166 2.98181C506.677 2.72872 507 2.20785 507 1.6377H505.5ZM467.424 20.5L466.758 19.1559C466.247 19.409 465.924 19.9298 465.924 20.5C465.924 21.0702 466.247 21.591 466.758 21.8441L467.424 20.5ZM505.5 39.3623H507C507 38.7921 506.677 38.2713 506.166 38.0182L505.5 39.3623ZM505.5 39.5V41C506.328 41 507 40.3284 507 39.5H505.5ZM5.5 39.5H4C4 40.3284 4.67157 41 5.5 41V39.5ZM5.5 1.5V0C4.67157 0 4 0.671573 4 1.5L5.5 1.5ZM505.5 1.5H507C507 0.671573 506.328 0 505.5 0V1.5ZM495.315 5.00916C494.573 5.3769 494.269 6.27679 494.637 7.01912C495.005 7.76146 495.904 8.06512 496.647 7.69739L495.981 6.35327L495.315 5.00916ZM477.609 17.1285C478.351 16.7608 478.655 15.8609 478.287 15.1186C477.919 14.3762 477.019 14.0726 476.277 14.4403L476.943 15.7844L477.609 17.1285ZM476.277 26.5597C477.019 26.9274 477.919 26.6238 478.287 25.8814C478.655 25.1391 478.351 24.2392 477.609 23.8715L476.943 25.2156L476.277 26.5597ZM496.647 33.3026C495.904 32.9349 495.005 33.2385 494.637 33.9809C494.269 34.7232 494.573 35.6231 495.315 35.9908L495.981 34.6467L496.647 33.3026ZM504 39.3967C504 40.2252 504.672 40.8967 505.5 40.8967C506.328 40.8967 507 40.2252 507 39.3967H505.5H504ZM507 39.4656C507 38.6371 506.328 37.9656 505.5 37.9656C504.672 37.9656 504 38.6371 504 39.4656H505.5H507ZM487.643 38C486.814 38 486.143 38.6716 486.143 39.5C486.143 40.3284 486.814 41 487.643 41V39.5V38ZM451.929 41C452.757 41 453.429 40.3284 453.429 39.5C453.429 38.6716 452.757 38 451.929 38V39.5V41ZM416.214 38C415.386 38 414.714 38.6716 414.714 39.5C414.714 40.3284 415.386 41 416.214 41V39.5V38ZM380.5 41C381.328 41 382 40.3284 382 39.5C382 38.6716 381.328 38 380.5 38V39.5V41ZM344.786 38C343.957 38 343.286 38.6716 343.286 39.5C343.286 40.3284 343.957 41 344.786 41V39.5V38ZM309.071 41C309.9 41 310.571 40.3284 310.571 39.5C310.571 38.6716 309.9 38 309.071 38V39.5V41ZM273.357 38C272.529 38 271.857 38.6716 271.857 39.5C271.857 40.3284 272.529 41 273.357 41V39.5V38ZM237.643 41C238.471 41 239.143 40.3284 239.143 39.5C239.143 38.6716 238.471 38 237.643 38V39.5V41ZM201.929 38C201.1 38 200.429 38.6716 200.429 39.5C200.429 40.3284 201.1 41 201.929 41V39.5V38ZM166.214 41C167.043 41 167.714 40.3284 167.714 39.5C167.714 38.6716 167.043 38 166.214 38V39.5V41ZM130.5 38C129.672 38 129 38.6716 129 39.5C129 40.3284 129.672 41 130.5 41V39.5V38ZM94.7856 41C95.6141 41 96.2856 40.3284 96.2856 39.5C96.2856 38.6716 95.6141 38 94.7856 38V39.5V41ZM59.0713 38C58.2429 38 57.5713 38.6716 57.5713 39.5C57.5713 40.3284 58.2429 41 59.0713 41V39.5V38ZM23.357 41C24.1855 41 24.857 40.3284 24.857 39.5C24.857 38.6716 24.1855 38 23.357 38V39.5V41ZM7 30C7 29.1716 6.32843 28.5 5.5 28.5C4.67157 28.5 4 29.1716 4 30H5.5H7ZM4 11C4 11.8284 4.67157 12.5 5.5 12.5C6.32843 12.5 7 11.8284 7 11H5.5H4ZM23.3571 3C24.1856 3 24.8571 2.32843 24.8571 1.5C24.8571 0.671573 24.1856 0 23.3571 0V1.5V3ZM59.0714 0C58.243 0 57.5714 0.671573 57.5714 1.5C57.5714 2.32843 58.243 3 59.0714 3V1.5V0ZM94.7857 3C95.6142 3 96.2857 2.32843 96.2857 1.5C96.2857 0.671573 95.6142 0 94.7857 0V1.5V3ZM130.5 0C129.672 0 129 0.671573 129 1.5C129 2.32843 129.672 3 130.5 3V1.5V0ZM166.214 3C167.043 3 167.714 2.32843 167.714 1.5C167.714 0.671573 167.043 0 166.214 0V1.5V3ZM201.929 0C201.1 0 200.429 0.671573 200.429 1.5C200.429 2.32843 201.1 3 201.929 3V1.5V0ZM237.643 3C238.471 3 239.143 2.32843 239.143 1.5C239.143 0.671573 238.471 0 237.643 0V1.5V3ZM273.357 0C272.529 0 271.857 0.671573 271.857 1.5C271.857 2.32843 272.529 3 273.357 3V1.5V0ZM309.071 3C309.9 3 310.571 2.32843 310.571 1.5C310.571 0.671573 309.9 0 309.071 0V1.5V3ZM344.786 0C343.957 0 343.286 0.671573 343.286 1.5C343.286 2.32843 343.957 3 344.786 3V1.5V0ZM380.5 3C381.328 3 382 2.32843 382 1.5C382 0.671573 381.328 0 380.5 0V1.5V3ZM416.214 0C415.386 0 414.714 0.671573 414.714 1.5C414.714 2.32843 415.386 3 416.214 3V1.5V0ZM451.929 3C452.757 3 453.429 2.32843 453.429 1.5C453.429 0.671573 452.757 0 451.929 0V1.5V3ZM487.643 0C486.815 0 486.143 0.671573 486.143 1.5C486.143 2.32843 486.815 3 487.643 3V1.5V0ZM504 1.53442C504 2.36285 504.672 3.03442 505.5 3.03442C506.328 3.03442 507 2.36285 507 1.53442H505.5H504ZM507 1.60327C507 0.774844 506.328 0.103271 505.5 0.103271C504.672 0.103271 504 0.774844 504 1.60327H505.5H507ZM505.5 1.6377L504.834 0.293582L495.315 5.00916L495.981 6.35327L496.647 7.69739L506.166 2.98181L505.5 1.6377ZM476.943 15.7844L476.277 14.4403L466.758 19.1559L467.424 20.5L468.09 21.8441L477.609 17.1285L476.943 15.7844ZM467.424 20.5L466.758 21.8441L476.277 26.5597L476.943 25.2156L477.609 23.8715L468.09 19.1559L467.424 20.5ZM495.981 34.6467L495.315 35.9908L504.834 40.7064L505.5 39.3623L506.166 38.0182L496.647 33.3026L495.981 34.6467ZM505.5 39.3623H504V39.3967H505.5H507V39.3623H505.5ZM505.5 39.4656H504V39.5H505.5H507V39.4656H505.5ZM505.5 39.5V38H487.643V39.5V41H505.5V39.5ZM451.929 39.5V38H416.214V39.5V41H451.929V39.5ZM380.5 39.5V38H344.786V39.5V41H380.5V39.5ZM309.071 39.5V38H273.357V39.5V41H309.071V39.5ZM237.643 39.5V38H201.929V39.5V41H237.643V39.5ZM166.214 39.5V38H130.5V39.5V41H166.214V39.5ZM94.7856 39.5V38H59.0713V39.5V41H94.7856V39.5ZM23.357 39.5V38H5.5V39.5V41H23.357V39.5ZM5.5 39.5H7V30H5.5H4V39.5H5.5ZM5.5 11H7V1.5H5.5H4V11H5.5ZM5.5 1.5V3H23.3571V1.5V0H5.5V1.5ZM59.0714 1.5V3H94.7857V1.5V0H59.0714V1.5ZM130.5 1.5V3H166.214V1.5V0H130.5V1.5ZM201.929 1.5V3H237.643V1.5V0H201.929V1.5ZM273.357 1.5V3H309.071V1.5V0H273.357V1.5ZM344.786 1.5V3H380.5V1.5V0H344.786V1.5ZM416.214 1.5V3H451.929V1.5V0H416.214V1.5ZM487.643 1.5V3H505.5V1.5V0H487.643V1.5ZM505.5 1.5H504V1.53442H505.5H507V1.5H505.5ZM505.5 1.60327H504V1.6377H505.5H507V1.60327H505.5Z" fill="#447660"/>
</g>
<defs>
<filter id="filter0_d_565_104" x="0" y="0" width="511" height="49" filterUnits="userSpaceOnUse" color-interpolation-filters="sRGB">
<feFlood flood-opacity="0" result="BackgroundImageFix"/>
<feColorMatrix in="SourceAlpha" type="matrix" values="0 0 0 0 0 0 0 0 0 0 0 0 0 0 0 0 0 0 127 0" result="hardAlpha"/>
<feOffset dy="4"/>
<feGaussianBlur stdDeviation="2"/>
<feComposite in2="hardAlpha" operator="out"/>
<feColorMatrix type="matrix" values="0 0 0 0 0 0 0 0 0 0 0 0 0 0 0 0 0 0 0.25 0"/>
<feBlend mode="normal" in2="BackgroundImageFix" result="effect1_dropShadow_565_104"/>
<feBlend mode="normal" in="SourceGraphic" in2="effect1_dropShadow_565_104" result="shape"/>
</filter>
</defs>
</svg>
