<svg width="18" height="20" viewBox="0 0 18 20" fill="none" xmlns="http://www.w3.org/2000/svg">
<path d="M3.25 19.5C2.65417 19.5 2.14428 19.288 1.72034 18.8641C1.29639 18.4401 1.08406 17.9299 1.08334 17.3333V3.25C0.776393 3.25 0.519282 3.146 0.312004 2.938C0.104726 2.73 0.000725958 2.47289 3.73563e-06 2.16667C-0.000718487 1.86044 0.103282 1.60333 0.312004 1.39533C0.520726 1.18733 0.777837 1.08333 1.08334 1.08333H5.41667C5.41667 0.776389 5.52067 0.519278 5.72867 0.312C5.93667 0.104722 6.19378 0.000722222 6.5 0H10.8333C11.1403 0 11.3978 0.104 11.6058 0.312C11.8138 0.52 11.9174 0.777111 11.9167 1.08333H16.25C16.5569 1.08333 16.8144 1.18733 17.0224 1.39533C17.2304 1.60333 17.3341 1.86044 17.3333 2.16667C17.3326 2.47289 17.2286 2.73036 17.0213 2.93908C16.8141 3.14781 16.5569 3.25144 16.25 3.25V17.3333C16.25 17.9292 16.038 18.4394 15.6141 18.8641C15.1901 19.2888 14.6799 19.5007 14.0833 19.5H3.25ZM6.5 15.1667C6.80695 15.1667 7.06442 15.0627 7.27242 14.8547C7.48042 14.6467 7.58406 14.3896 7.58334 14.0833V6.5C7.58334 6.19306 7.47934 5.93594 7.27134 5.72867C7.06334 5.52139 6.80623 5.41739 6.5 5.41667C6.19378 5.41594 5.93667 5.51994 5.72867 5.72867C5.52067 5.93739 5.41667 6.1945 5.41667 6.5V14.0833C5.41667 14.3903 5.52067 14.6477 5.72867 14.8558C5.93667 15.0638 6.19378 15.1674 6.5 15.1667ZM10.8333 15.1667C11.1403 15.1667 11.3978 15.0627 11.6058 14.8547C11.8138 14.6467 11.9174 14.3896 11.9167 14.0833V6.5C11.9167 6.19306 11.8127 5.93594 11.6047 5.72867C11.3967 5.52139 11.1396 5.41739 10.8333 5.41667C10.5271 5.41594 10.27 5.51994 10.062 5.72867C9.854 5.93739 9.75 6.1945 9.75 6.5V14.0833C9.75 14.3903 9.854 14.6477 10.062 14.8558C10.27 15.0638 10.5271 15.1674 10.8333 15.1667Z" fill="white"/>
</svg>
