<svg width="32" height="32" viewBox="0 0 32 32" fill="none" xmlns="http://www.w3.org/2000/svg">
<path d="M5.49954 22.34H26.4995C26.8796 22.3401 27.2454 22.4845 27.5231 22.744C27.8008 23.0034 27.9697 23.3586 27.9956 23.7378C28.0215 24.117 27.9025 24.4918 27.6627 24.7866C27.4228 25.0814 27.08 25.2742 26.7035 25.326L26.4995 25.34H5.49954C5.1195 25.3399 4.75366 25.1955 4.47596 24.9361C4.19826 24.6766 4.02939 24.3214 4.00349 23.9423C3.97759 23.5631 4.09657 23.1882 4.33641 22.8934C4.57624 22.5986 4.91904 22.4058 5.29554 22.354L5.49954 22.34ZM5.49954 14.34H26.4995C26.8796 14.3401 27.2454 14.4845 27.5231 14.744C27.8008 15.0034 27.9697 15.3586 27.9956 15.7378C28.0215 16.117 27.9025 16.4918 27.6627 16.7866C27.4228 17.0814 27.08 17.2742 26.7035 17.326L26.4995 17.34H5.49954C5.1195 17.3399 4.75366 17.1955 4.47596 16.9361C4.19826 16.6766 4.02939 16.3214 4.00349 15.9423C3.97759 15.5631 4.09657 15.1882 4.33641 14.8934C4.57624 14.5986 4.91904 14.4058 5.29554 14.354L5.49954 14.34Z" fill="white"/>
<path d="M5.33939 14.4H26.3394C26.7194 14.4001 27.0853 14.5445 27.363 14.804C27.6407 15.0634 27.8095 15.4186 27.8354 15.7978C27.8613 16.1769 27.7424 16.5518 27.5025 16.8466C27.2627 17.1414 26.9199 17.3342 26.5434 17.386L26.3394 17.4H5.33939C4.95934 17.3999 4.5935 17.2555 4.3158 16.9961C4.0381 16.7366 3.86924 16.3814 3.84333 16.0023C3.81743 15.6231 3.93642 15.2482 4.17625 14.9534C4.41609 14.6586 4.75889 14.4658 5.13539 14.414L5.33939 14.4ZM5.33939 6.40002H26.3394C26.7194 6.40014 27.0853 6.54451 27.363 6.80397C27.6407 7.06343 27.8095 7.41862 27.8354 7.79778C27.8613 8.17695 27.7424 8.55181 27.5025 8.84662C27.2627 9.14144 26.9199 9.33422 26.5434 9.38602L26.3394 9.40002H5.33939C4.95934 9.39991 4.5935 9.25554 4.3158 8.99608C4.0381 8.73662 3.86924 8.38143 3.84333 8.00226C3.81743 7.6231 3.93642 7.24824 4.17625 6.95343C4.41609 6.65861 4.75889 6.46583 5.13539 6.41402L5.33939 6.40002Z" fill="white"/>
</svg>
