<svg width="20" height="15" viewBox="0 0 20 15" fill="none" xmlns="http://www.w3.org/2000/svg">
<path d="M16.8527 0.649324C17.1501 0.290084 17.5761 0.0608754 18.0402 0.0104905C18.5042 -0.0398945 18.9697 0.0925232 19.3374 0.379556C19.518 0.519172 19.6687 0.69351 19.7807 0.892266C19.8926 1.09102 19.9635 1.31016 19.9892 1.53674C20.0148 1.76331 19.9947 1.99272 19.9301 2.21141C19.8654 2.4301 19.7575 2.63363 19.6127 2.80997L10.2044 14.35C10.047 14.5407 9.85159 14.6967 9.63064 14.8081C9.4097 14.9196 9.16799 14.984 8.92082 14.9974C8.67364 15.0108 8.42638 14.9728 8.19466 14.8859C7.96294 14.799 7.7518 14.665 7.57462 14.4924L0.518433 7.57337L0.395826 7.44348C-0.169669 6.76407 -0.129635 5.76243 0.518433 5.12797C1.1665 4.49352 2.1899 4.45355 2.88301 5.00808L3.01562 5.12797L8.6956 10.6732L16.8778 0.656818L16.8527 0.649324Z" fill="white"/>
</svg>
