<svg width="17" height="17" viewBox="0 0 17 17" fill="none" xmlns="http://www.w3.org/2000/svg">
<path d="M2.30078 11.1494C2.38362 11.1494 2.45117 11.217 2.45117 11.2998V14.1494H14.1504V11.2998C14.1504 11.217 14.2179 11.1494 14.3008 11.1494H16.3008C16.3836 11.1494 16.4512 11.217 16.4512 11.2998V14.2998C16.4512 14.8897 16.2392 15.3985 15.8203 15.8184C15.4535 16.1858 15.0175 16.3946 14.5186 16.4404L14.3008 16.4502H2.30078C1.71094 16.4502 1.20238 16.2383 0.783203 15.8193C0.363942 15.4001 0.151106 14.8904 0.150391 14.2998V11.2998C0.150391 11.217 0.217939 11.1494 0.300781 11.1494H2.30078ZM8.24414 0.161133C8.29837 0.13901 8.36321 0.149347 8.40723 0.193359L13.4072 5.19336C13.4651 5.25118 13.4659 5.34543 13.4092 5.4043L12.0088 6.85352C11.9809 6.8824 11.9425 6.89899 11.9023 6.89941C11.8621 6.89977 11.8234 6.88392 11.7949 6.85547L9.45117 4.51172V12.2998C9.45117 12.3826 9.38362 12.4502 9.30078 12.4502H7.30078C7.21794 12.4502 7.15039 12.3826 7.15039 12.2998V4.51172L4.80664 6.85547C4.77819 6.88392 4.73946 6.89977 4.69922 6.89941C4.65907 6.89899 4.62066 6.8824 4.59277 6.85352L3.19238 5.4043C3.13564 5.34543 3.13651 5.25118 3.19434 5.19336L8.19434 0.193359L8.24414 0.161133Z" fill="white" stroke="white" stroke-width="0.3" stroke-linejoin="round"/>
</svg>
