<svg width="14" height="12" viewBox="0 0 14 12" fill="none" xmlns="http://www.w3.org/2000/svg">
<path d="M0.658596 12C0.536374 12 0.425263 11.9696 0.325263 11.9087C0.225263 11.8478 0.147485 11.7671 0.0919296 11.6667C0.036374 11.5662 0.00592961 11.4578 0.000596274 11.3413C-0.00473706 11.2249 0.0257074 11.1111 0.0919296 11L6.2586 0.333333C6.32526 0.222222 6.41149 0.138889 6.51726 0.0833333C6.62304 0.0277778 6.73126 0 6.84193 0C6.9526 0 7.06104 0.0277778 7.16726 0.0833333C7.27349 0.138889 7.35949 0.222222 7.42526 0.333333L13.5919 11C13.6586 11.1111 13.6893 11.2251 13.6839 11.342C13.6786 11.4589 13.6479 11.5671 13.5919 11.6667C13.5359 11.7662 13.4582 11.8469 13.3586 11.9087C13.259 11.9704 13.1479 12.0009 13.0253 12H0.658596ZM1.8086 10.6667H11.8753L6.84193 2L1.8086 10.6667ZM6.84193 10C7.03082 10 7.18926 9.936 7.31726 9.808C7.44526 9.68 7.50904 9.52178 7.5086 9.33333C7.50815 9.14489 7.44415 8.98667 7.3166 8.85867C7.18904 8.73067 7.03082 8.66667 6.84193 8.66667C6.65304 8.66667 6.49482 8.73067 6.36726 8.85867C6.23971 8.98667 6.17571 9.14489 6.17526 9.33333C6.17482 9.52178 6.23882 9.68022 6.36726 9.80867C6.49571 9.93711 6.65393 10.0009 6.84193 10ZM6.84193 8C7.03082 8 7.18926 7.936 7.31726 7.808C7.44526 7.68 7.50904 7.52178 7.5086 7.33333V5.33333C7.5086 5.14444 7.4446 4.98622 7.3166 4.85867C7.1886 4.73111 7.03037 4.66711 6.84193 4.66667C6.65349 4.66622 6.49526 4.73022 6.36726 4.85867C6.23926 4.98711 6.17526 5.14533 6.17526 5.33333V7.33333C6.17526 7.52222 6.23926 7.68067 6.36726 7.80867C6.49526 7.93667 6.65349 8.00044 6.84193 8Z" fill="#935100"/>
</svg>
