<svg width="1440" height="1024" viewBox="0 0 1440 1024" fill="none" xmlns="http://www.w3.org/2000/svg">
<mask id="mask0_539_3743" style="mask-type:alpha" maskUnits="userSpaceOnUse" x="0" y="0" width="1440" height="1024">
<rect width="1440" height="1024" fill="#D9D9D9"/>
</mask>
<g mask="url(#mask0_539_3743)">
<g filter="url(#filter0_d_539_3743)">
<path fill-rule="evenodd" clip-rule="evenodd" d="M2499.66 1185.58L2392.8 1180.2C2285.94 1174.82 2072.22 1164.06 1859.8 1173.21C1647.38 1182.35 1436.26 1211.42 1222.1 1194.01C1007.95 1176.61 790.759 1112.75 577.472 1108.62C364.184 1104.49 154.798 1160.11 50.1048 1187.91L-54.5883 1215.72L-64.991 1056.41L41.0024 1048.52C146.996 1040.63 358.983 1024.84 570.97 1009.06C782.957 993.269 994.944 977.483 1206.93 961.696C1418.92 945.91 1630.9 930.123 1842.89 914.337C2054.88 898.55 2266.87 882.764 2372.86 874.871L2478.85 866.977L2499.66 1185.58Z" fill="#F5ECDB"/>
<path fill-rule="evenodd" clip-rule="evenodd" d="M2458.05 548.37L2352.92 569.539C2247.79 590.707 2037.54 633.044 1825.99 655.468C1614.43 677.892 1401.58 680.404 1191.76 729.378C981.939 778.353 775.154 873.791 564.467 909.491C353.781 945.19 139.193 921.151 31.899 909.131L-75.3947 897.111L-64.992 1056.41L41.0014 1048.52C146.995 1040.63 358.982 1024.84 570.969 1009.06C782.956 993.269 994.943 977.483 1206.93 961.696C1418.92 945.91 1630.9 930.123 1842.89 914.337C2054.88 898.55 2266.86 882.764 2372.86 874.871L2478.85 866.978L2458.05 548.37Z" fill="#F5ECDB"/>
</g>
</g>
<defs>
<filter id="filter0_d_539_3743" x="-79.3948" y="548.37" width="2583.05" height="675.348" filterUnits="userSpaceOnUse" color-interpolation-filters="sRGB">
<feFlood flood-opacity="0" result="BackgroundImageFix"/>
<feColorMatrix in="SourceAlpha" type="matrix" values="0 0 0 0 0 0 0 0 0 0 0 0 0 0 0 0 0 0 127 0" result="hardAlpha"/>
<feOffset dy="4"/>
<feGaussianBlur stdDeviation="2"/>
<feComposite in2="hardAlpha" operator="out"/>
<feColorMatrix type="matrix" values="0 0 0 0 0 0 0 0 0 0 0 0 0 0 0 0 0 0 0.1 0"/>
<feBlend mode="normal" in2="BackgroundImageFix" result="effect1_dropShadow_539_3743"/>
<feBlend mode="normal" in="SourceGraphic" in2="effect1_dropShadow_539_3743" result="shape"/>
</filter>
</defs>
</svg>
