<svg width="1440" height="1024" viewBox="0 0 1440 1024" fill="none" xmlns="http://www.w3.org/2000/svg">
<mask id="mask0_418_9154" style="mask-type:alpha" maskUnits="userSpaceOnUse" x="0" y="0" width="1440" height="1024">
<rect width="1440" height="1024" fill="#D9D9D9"/>
</mask>
<g mask="url(#mask0_418_9154)">
<g filter="url(#filter0_d_418_9154)">
<path fill-rule="evenodd" clip-rule="evenodd" d="M-376 -146.423L-355.205 -89.6911C-334.411 -32.9588 -292.821 80.5058 -279.647 195.145C-266.472 309.783 -281.713 425.597 -230.652 538.67C-179.591 651.743 -62.2289 762.076 -30.1112 875.932C2.00649 989.788 -51.1203 1107.17 -77.6836 1165.86L-104.247 1224.55L123.071 1215.15L121.22 1157.64C119.369 1100.12 115.666 985.091 111.963 870.061C108.26 755.03 104.557 640 100.854 524.97C97.1514 409.94 93.4485 294.909 89.7456 179.879C86.0427 64.8488 82.3398 -50.1814 80.4884 -107.697L78.637 -165.212L-376 -146.423Z" fill="#E7F3EC"/>
<path fill-rule="evenodd" clip-rule="evenodd" d="M533.274 -184L516.183 -125.702C499.091 -67.4036 464.907 49.1924 459.139 164.614C453.37 280.036 476.016 394.283 432.361 511.271C388.706 628.258 278.749 747.985 254.037 864.19C229.325 980.394 289.858 1093.08 320.124 1149.42L350.39 1205.76L123.072 1215.15L121.221 1157.64C119.369 1100.12 115.666 985.091 111.963 870.061C108.26 755.031 104.558 640.001 100.855 524.97C97.1518 409.94 93.449 294.91 89.7461 179.88C86.0432 64.8494 82.3403 -50.1809 80.4889 -107.696L78.6374 -165.211L533.274 -184Z" fill="#E7F3EC"/>
</g>
<g filter="url(#filter1_d_418_9154)">
<path fill-rule="evenodd" clip-rule="evenodd" d="M-448 -127.423L-427.205 -70.6911C-406.411 -13.9588 -364.821 99.5058 -351.647 214.145C-338.472 328.783 -353.713 444.597 -302.652 557.67C-251.591 670.743 -134.229 781.076 -102.111 894.932C-69.9935 1008.79 -123.12 1126.17 -149.684 1184.86L-176.247 1243.55L51.0715 1234.15L49.22 1176.64C47.3686 1119.12 43.6657 1004.09 39.9629 889.061C36.26 774.03 32.5571 659 28.8542 543.97C25.1514 428.94 21.4485 313.909 17.7456 198.879C14.0427 83.8488 10.3398 -31.1814 8.48841 -88.6966L6.63697 -146.212L-448 -127.423Z" fill="#CEE6D9"/>
<path fill-rule="evenodd" clip-rule="evenodd" d="M461.274 -165L444.183 -106.702C427.091 -48.4036 392.907 68.1924 387.139 183.614C381.37 299.036 404.016 413.283 360.361 530.271C316.706 647.258 206.749 766.985 182.037 883.19C157.325 999.394 217.858 1112.08 248.124 1168.42L278.39 1224.76L51.072 1234.15L49.2205 1176.64C47.3691 1119.12 43.6662 1004.09 39.9633 889.061C36.2605 774.031 32.5576 659.001 28.8547 543.97C25.1518 428.94 21.449 313.91 17.7461 198.88C14.0432 83.8494 10.3403 -31.1809 8.48888 -88.696L6.63745 -146.211L461.274 -165Z" fill="#CEE6D9"/>
</g>
<g filter="url(#filter2_d_418_9154)">
<path fill-rule="evenodd" clip-rule="evenodd" d="M-487 -127.423L-466.205 -70.6911C-445.411 -13.9588 -403.821 99.5058 -390.647 214.145C-377.472 328.783 -392.713 444.597 -341.652 557.67C-290.591 670.743 -173.229 781.076 -141.111 894.932C-108.994 1008.79 -162.12 1126.17 -188.684 1184.86L-215.247 1243.55L12.0715 1234.15L10.22 1176.64C8.36861 1119.12 4.66573 1004.09 0.962857 889.061C-2.74002 774.03 -6.4429 659 -10.1458 543.97C-13.8486 428.94 -17.5515 313.909 -21.2544 198.879C-24.9573 83.8488 -28.6602 -31.1814 -30.5116 -88.6966L-32.363 -146.212L-487 -127.423Z" fill="#BEDCCF"/>
<path fill-rule="evenodd" clip-rule="evenodd" d="M422.274 -165L405.183 -106.702C388.091 -48.4036 353.907 68.1924 348.139 183.614C342.37 299.036 365.016 413.283 321.361 530.271C277.706 647.258 167.749 766.985 143.037 883.19C118.325 999.394 178.858 1112.08 209.124 1168.42L239.39 1224.76L12.072 1234.15L10.2205 1176.64C8.36909 1119.12 4.66621 1004.09 0.963334 889.061C-2.73954 774.031 -6.44242 659.001 -10.1453 543.97C-13.8482 428.94 -17.551 313.91 -21.2539 198.88C-24.9568 83.8494 -28.6597 -31.1809 -30.5111 -88.696L-32.3626 -146.211L422.274 -165Z" fill="#BEDCCF"/>
</g>
<g filter="url(#filter3_d_418_9154)">
<path fill-rule="evenodd" clip-rule="evenodd" d="M2290.02 584.345L2236.47 548.468C2182.91 512.591 2075.81 440.836 2010.31 347.29C1944.82 253.744 1920.95 138.407 1799.97 73.9162C1678.99 9.42533 1460.9 -4.21917 1367.66 -83.2375C1274.43 -162.256 1306.04 -306.648 1321.85 -378.844L1337.65 -451.04L1004.72 -276.71L1030.53 -226.305C1056.34 -175.9 1107.96 -75.0907 1159.58 25.7189C1211.2 126.529 1262.82 227.338 1314.44 328.148C1366.06 428.958 1417.68 529.767 1469.3 630.577C1520.92 731.387 1572.54 832.196 1598.35 882.601L1624.16 933.006L2290.02 584.345Z" fill="#F6EFE3"/>
<path fill-rule="evenodd" clip-rule="evenodd" d="M958.296 1281.66L960.23 1216.73C962.165 1151.8 966.034 1021.93 928.286 913.861C890.539 805.788 811.175 719.506 828.916 582.377C846.657 445.249 961.503 257.274 951.5 134.673C941.497 12.0719 806.644 -45.1552 739.218 -73.7687L671.791 -102.382L1004.72 -276.713L1030.53 -226.308C1056.34 -175.903 1107.96 -75.0933 1159.58 25.7164C1211.2 126.526 1262.82 227.336 1314.44 328.145C1366.06 428.955 1417.68 529.765 1469.3 630.574C1520.92 731.384 1572.54 832.194 1598.35 882.599L1624.16 933.003L958.296 1281.66Z" fill="#F6EFE3"/>
</g>
<g filter="url(#filter4_d_418_9154)">
<path fill-rule="evenodd" clip-rule="evenodd" d="M2428.02 584.345L2374.47 548.468C2320.92 512.591 2213.81 440.836 2148.32 347.29C2082.82 253.744 2058.95 138.407 1937.97 73.9162C1816.99 9.42533 1598.9 -4.21917 1505.66 -83.2375C1412.43 -162.256 1444.04 -306.648 1459.85 -378.844L1475.66 -451.04L1142.72 -276.71L1168.53 -226.305C1194.34 -175.9 1245.96 -75.0907 1297.58 25.7189C1349.2 126.529 1400.82 227.338 1452.44 328.148C1504.06 428.958 1555.68 529.767 1607.3 630.577C1658.92 731.387 1710.54 832.196 1736.35 882.601L1762.16 933.006L2428.02 584.345Z" fill="#EDE4D3"/>
<path fill-rule="evenodd" clip-rule="evenodd" d="M1096.3 1281.66L1098.23 1216.73C1100.17 1151.8 1104.03 1021.93 1066.29 913.861C1028.54 805.788 949.176 719.506 966.917 582.377C984.658 445.249 1099.5 257.274 1089.5 134.673C1079.5 12.072 944.645 -45.1551 877.219 -73.7686L809.792 -102.382L1142.72 -276.713L1168.53 -226.308C1194.34 -175.903 1245.96 -75.0932 1297.58 25.7165C1349.2 126.526 1400.82 227.336 1452.44 328.145C1504.06 428.955 1555.68 529.765 1607.3 630.574C1658.92 731.384 1710.54 832.194 1736.35 882.599L1762.16 933.003L1096.3 1281.66Z" fill="#EDE4D3"/>
<path fill-rule="evenodd" clip-rule="evenodd" d="M1161.44 1272.38L1163.37 1207.44C1165.31 1142.51 1169.17 1012.65 1131.43 904.574C1093.68 796.5 1014.32 710.218 1032.06 573.09C1049.8 435.961 1164.64 247.986 1154.64 125.385C1144.64 2.78441 1009.78 -54.4427 942.358 -83.0562L874.932 -111.67L1207.86 -286L1233.67 -235.595C1259.48 -185.19 1311.1 -84.3808 1362.72 16.4289C1414.34 117.239 1465.96 218.048 1517.58 318.858C1569.2 419.668 1620.82 520.477 1672.44 621.287C1724.06 722.097 1775.68 822.906 1801.49 873.311L1827.3 923.716L1161.44 1272.38Z" fill="#EDE4D3"/>
</g>
<g filter="url(#filter5_d_418_9154)">
<path fill-rule="evenodd" clip-rule="evenodd" d="M2561.02 584.345L2507.47 548.468C2453.92 512.591 2346.81 440.836 2281.32 347.29C2215.82 253.744 2191.95 138.407 2070.97 73.9162C1949.99 9.42533 1731.9 -4.21917 1638.66 -83.2375C1545.43 -162.256 1577.04 -306.648 1592.85 -378.844L1608.66 -451.04L1275.72 -276.71L1301.53 -226.305C1327.34 -175.9 1378.96 -75.0907 1430.58 25.7189C1482.2 126.529 1533.82 227.338 1585.44 328.148C1637.06 428.958 1688.68 529.767 1740.3 630.577C1791.92 731.387 1843.54 832.196 1869.35 882.601L1895.16 933.006L2561.02 584.345Z" fill="#E6DBC6"/>
<path fill-rule="evenodd" clip-rule="evenodd" d="M1229.3 1281.66L1231.23 1216.73C1233.17 1151.8 1237.03 1021.93 1199.29 913.861C1161.54 805.788 1082.18 719.506 1099.92 582.377C1117.66 445.249 1232.5 257.274 1222.5 134.673C1212.5 12.072 1077.65 -45.1551 1010.22 -73.7686L942.792 -102.382L1275.72 -276.713L1301.53 -226.308C1327.34 -175.903 1378.96 -75.0932 1430.58 25.7165C1482.2 126.526 1533.82 227.336 1585.44 328.145C1637.06 428.955 1688.68 529.765 1740.3 630.574C1791.92 731.384 1843.54 832.194 1869.35 882.599L1895.16 933.003L1229.3 1281.66Z" fill="#E6DBC6"/>
<path fill-rule="evenodd" clip-rule="evenodd" d="M1294.44 1272.38L1296.37 1207.44C1298.31 1142.51 1302.17 1012.65 1264.43 904.574C1226.68 796.5 1147.32 710.218 1165.06 573.09C1182.8 435.961 1297.64 247.986 1287.64 125.385C1277.64 2.78441 1142.78 -54.4427 1075.36 -83.0562L1007.93 -111.67L1340.86 -286L1366.67 -235.595C1392.48 -185.19 1444.1 -84.3808 1495.72 16.4289C1547.34 117.239 1598.96 218.048 1650.58 318.858C1702.2 419.668 1753.82 520.477 1805.44 621.287C1857.06 722.097 1908.68 822.906 1934.49 873.311L1960.3 923.716L1294.44 1272.38Z" fill="#E6DBC6"/>
</g>
</g>
<defs>
<filter id="filter0_d_418_9154" x="-380" y="-184" width="917.274" height="1416.55" filterUnits="userSpaceOnUse" color-interpolation-filters="sRGB">
<feFlood flood-opacity="0" result="BackgroundImageFix"/>
<feColorMatrix in="SourceAlpha" type="matrix" values="0 0 0 0 0 0 0 0 0 0 0 0 0 0 0 0 0 0 127 0" result="hardAlpha"/>
<feOffset dy="4"/>
<feGaussianBlur stdDeviation="2"/>
<feComposite in2="hardAlpha" operator="out"/>
<feColorMatrix type="matrix" values="0 0 0 0 0 0 0 0 0 0 0 0 0 0 0 0 0 0 0.25 0"/>
<feBlend mode="normal" in2="BackgroundImageFix" result="effect1_dropShadow_418_9154"/>
<feBlend mode="normal" in="SourceGraphic" in2="effect1_dropShadow_418_9154" result="shape"/>
</filter>
<filter id="filter1_d_418_9154" x="-452" y="-165" width="917.274" height="1416.55" filterUnits="userSpaceOnUse" color-interpolation-filters="sRGB">
<feFlood flood-opacity="0" result="BackgroundImageFix"/>
<feColorMatrix in="SourceAlpha" type="matrix" values="0 0 0 0 0 0 0 0 0 0 0 0 0 0 0 0 0 0 127 0" result="hardAlpha"/>
<feOffset dy="4"/>
<feGaussianBlur stdDeviation="2"/>
<feComposite in2="hardAlpha" operator="out"/>
<feColorMatrix type="matrix" values="0 0 0 0 0 0 0 0 0 0 0 0 0 0 0 0 0 0 0.25 0"/>
<feBlend mode="normal" in2="BackgroundImageFix" result="effect1_dropShadow_418_9154"/>
<feBlend mode="normal" in="SourceGraphic" in2="effect1_dropShadow_418_9154" result="shape"/>
</filter>
<filter id="filter2_d_418_9154" x="-491" y="-165" width="917.274" height="1416.55" filterUnits="userSpaceOnUse" color-interpolation-filters="sRGB">
<feFlood flood-opacity="0" result="BackgroundImageFix"/>
<feColorMatrix in="SourceAlpha" type="matrix" values="0 0 0 0 0 0 0 0 0 0 0 0 0 0 0 0 0 0 127 0" result="hardAlpha"/>
<feOffset dy="4"/>
<feGaussianBlur stdDeviation="2"/>
<feComposite in2="hardAlpha" operator="out"/>
<feColorMatrix type="matrix" values="0 0 0 0 0 0 0 0 0 0 0 0 0 0 0 0 0 0 0.25 0"/>
<feBlend mode="normal" in2="BackgroundImageFix" result="effect1_dropShadow_418_9154"/>
<feBlend mode="normal" in="SourceGraphic" in2="effect1_dropShadow_418_9154" result="shape"/>
</filter>
<filter id="filter3_d_418_9154" x="667.791" y="-451.041" width="1626.23" height="1740.7" filterUnits="userSpaceOnUse" color-interpolation-filters="sRGB">
<feFlood flood-opacity="0" result="BackgroundImageFix"/>
<feColorMatrix in="SourceAlpha" type="matrix" values="0 0 0 0 0 0 0 0 0 0 0 0 0 0 0 0 0 0 127 0" result="hardAlpha"/>
<feOffset dy="4"/>
<feGaussianBlur stdDeviation="2"/>
<feComposite in2="hardAlpha" operator="out"/>
<feColorMatrix type="matrix" values="0 0 0 0 0 0 0 0 0 0 0 0 0 0 0 0 0 0 0.1 0"/>
<feBlend mode="normal" in2="BackgroundImageFix" result="effect1_dropShadow_418_9154"/>
<feBlend mode="normal" in="SourceGraphic" in2="effect1_dropShadow_418_9154" result="shape"/>
</filter>
<filter id="filter4_d_418_9154" x="805.792" y="-451.041" width="1626.23" height="1740.7" filterUnits="userSpaceOnUse" color-interpolation-filters="sRGB">
<feFlood flood-opacity="0" result="BackgroundImageFix"/>
<feColorMatrix in="SourceAlpha" type="matrix" values="0 0 0 0 0 0 0 0 0 0 0 0 0 0 0 0 0 0 127 0" result="hardAlpha"/>
<feOffset dy="4"/>
<feGaussianBlur stdDeviation="2"/>
<feComposite in2="hardAlpha" operator="out"/>
<feColorMatrix type="matrix" values="0 0 0 0 0 0 0 0 0 0 0 0 0 0 0 0 0 0 0.1 0"/>
<feBlend mode="normal" in2="BackgroundImageFix" result="effect1_dropShadow_418_9154"/>
<feBlend mode="normal" in="SourceGraphic" in2="effect1_dropShadow_418_9154" result="shape"/>
</filter>
<filter id="filter5_d_418_9154" x="938.792" y="-451.041" width="1626.23" height="1740.7" filterUnits="userSpaceOnUse" color-interpolation-filters="sRGB">
<feFlood flood-opacity="0" result="BackgroundImageFix"/>
<feColorMatrix in="SourceAlpha" type="matrix" values="0 0 0 0 0 0 0 0 0 0 0 0 0 0 0 0 0 0 127 0" result="hardAlpha"/>
<feOffset dy="4"/>
<feGaussianBlur stdDeviation="2"/>
<feComposite in2="hardAlpha" operator="out"/>
<feColorMatrix type="matrix" values="0 0 0 0 0 0 0 0 0 0 0 0 0 0 0 0 0 0 0.1 0"/>
<feBlend mode="normal" in2="BackgroundImageFix" result="effect1_dropShadow_418_9154"/>
<feBlend mode="normal" in="SourceGraphic" in2="effect1_dropShadow_418_9154" result="shape"/>
</filter>
</defs>
</svg>
